<?xml version="1.0" encoding="UTF-8"?>
<svg id="Layer_1" data-name="Layer 1" xmlns="http://www.w3.org/2000/svg" version="1.1" viewBox="0 0 1920 1080">
  <defs>
    <style>
      .cls-1 {
        fill: #221f1f;
        stroke-width: 0px;
      }
    </style>
  </defs>
  <path class="cls-1" d="M1130.4,319c-3.5-2.8-7.8-4.7-11.9-5.4-4.5-1.4-9.3-1.3-13.8.5-2.4,1.1-4.6,2.8-6.3,4.8-9.5,10.8-18.4,22.4-26.3,34.4-7.3,10.9-14.7,22.9-22.6,36.6-25,43.8-46.2,88.8-65.8,131.3-11.6-5.2-23.9-8.2-36.6-9-14.7-.8-29.6-.8-44.4-.2,4.2-9.5,8.7-19.1,13-28.4,4.7-10,9.6-20.3,14-30.6,5.8-13,10.9-23,16.1-31.8,1.9-3.7,5.4-6.7,9-9.9,4.2-3.6,8.6-7.4,10.9-12.8,1.9-5.3-.7-11.2-5.8-13.2-6.3-3.1-13.3-4.6-20.6-4.2-7.2.9-11.6,7.3-15.4,14.1-9,17-17.1,34.6-24.1,52.5-5.8,14.4-11.2,28.5-16.3,42.2-5.2,13.7-8.9,23.6-14.3,37.2-2.4,6.2-4.9,14-7,19.2-2.4,6.2-5.6,18.2-8.5,24.2-5,10.7-9.7,21.5-19.5,28.4-8.3,5.8-21.9,7.6-26.3-3.7-4.1-10.4-5.3-21.8-3.5-32.8,3.9-35,19.8-65.7,37.4-92.9,14.2-22.7,30.7-43.8,49.3-63.1,5-4.2,8.4-10.2,9.3-16.7.3-11.2-2.6-22.3-8.5-31.9-3.1-5-8-9.8-13.7-8.9-5.3,2.4-10.2,5.5-14.6,9.2-34.4,27.3-66.3,58.4-98.9,88.2,7.3-19.4,16.4-38.1,23.6-57.8,3.7-9.6-1-24.4-11-25.9-9.2-2.8-16.9,4.1-23.8,9.5-29.2,24-54.1,53.5-80.8,80.6-26.7,27.1-54.9,55.4-84,81,10.6-22.8,22.8-44.9,36.5-66.1,19.8-30.5,57.6-94.8,79.1-123.6,3.5-5.3,9.3-9.6,9.8-16.9-.1-8.8-3.5-17.3-9.6-23.8-3.3-3.5-8.2-7.3-12.5-4.5-4.9,3.4-9.3,7.6-12.8,12.5-11.1,14.7-21.2,30-30.4,46-24.1,41-62.7,119.2-84.5,161.9-17.3,34.1-12.5,18.5-26.6,54.6-5.3,14.6-11.7,29.8-9.8,46.5.6,4.4,1.3,11.2,6.3,11.5,1.1-1,2.1-2.1,3-3.3,29.2-43.2,35.5-36.5,66.8-77.8,35.6-46.1,80.3-84.4,131.3-112.6-1,1.9-2,3.8-3.1,5.6-16.3,25.9-32.1,52.2-47.3,79-10.1,18.2-24.1,48.6-32.2,68.2-2.8,6.6-5,13.5-6.4,20.6-1,11.1,1.5,22.2,7.3,31.7,2.3,4.2,8,7.3,11.2,3.1,5.4-7.3,9.5-15.5,11.9-24.2,9.3-29,21.5-57,36.5-83.5,5.4-10.1,12.2-18.8,18.4-28.1,31.8-43.9,72.8-80.3,120.2-106.5-23.1,29.1-41.8,61.4-55.4,96-6.7,15.7-11.6,32.1-14.6,48.9-2.3,16.4-1.3,33,3,48.9,2.8,12.9,11.9,23.4,24.1,28.2,11.7,4.6,29.4-.7,39.8-6.6,14.2-8,22.2-22.1,28-37.3,4.6-11.9,5.5-17.5,8.8-24.5,3.4-7,6.5-17.4,8.8-22.1,21.8-1.2,60.7.8,80.3,6.8-11.1,22.2-22,44.7-32.5,66.9-8.6,18.2-10.7,23.8-14.3,33.1-2,5.2-4.4,11.5-8.6,21.7-5.3,12.9-9.3,23.3-12.6,32.7-2.2,5.4-4.2,11.1-5.7,16.9-2.4,10.7-3.9,21.6-4.5,32.3-.8,7,0,14.2,2.5,21.1,4.3,9.2,13.6,14.9,23.3,14.9s2.7-.1,4-.3c10.6-.7,20.9-4.3,29.8-10.5,17.4-15,32.2-32.6,43.8-52.2,14.5-20.8,25.3-43.8,32.1-68.3,3.9-14.8,4.2-29.9,1-47.6-2.1-11.5-5.4-22.7-8.8-34.6l-.6-2.1c-2.6-8.9-6.8-17-12.5-24.2-.8-1-1.7-2-2.6-2.9-1-1-1.9-2-2.7-3,6.9-13.5,14.7-26.8,22.2-39.7l2.9-4.9c29-48.9,59.4-95.7,85.4-135.1,1.6-2.5,3.2-5,4.8-7.5,4-6.1,8.1-12.5,11.7-19,2.2-3.7,1.1-8.5-2.3-10.9ZM1001.9,643.4c-6,18.5-13.1,36.8-21.3,54.4-6.2,12-13.2,23.7-21,34.8-5.2,7.3-21.7,17.5-32.3,16.4-4.1-.5-6.9-2.6-8.4-6.3-1.4-4.3-1.8-9-1.2-13.4,1.1-6,2.9-11.8,5.7-17.5,2.4-6.5,5-12.9,7.6-18.9,4-9.4,8.3-18.9,12.5-28l4.3-9.5c4.6-10.3,5.5-12.9,6.4-15.5.8-2.5,1.7-5,6.2-15,10.3-22.1,21.6-44.9,34.6-69.5,2.4,3.3,4.7,6.7,6.8,10.1,1.7,5.1,2.8,10.5,3.2,16.2,3.9,20.4,2.9,41.8-3.1,61.7Z"/>
  <path class="cls-1" d="M1185.3,540.9l34.1,16.3c-12.7,18.6-40.1,33.1-77,33.1s-86.1-24.8-86.1-67.5,34.7-67.5,87.7-67.5,62.5,14.8,74.8,32.9l-34.3,16.3c-9-13-22.8-19.2-41.1-19.2-28.1,0-46.8,13.2-46.8,37.4s18.7,37.5,46.8,37.5,32.3-5.8,41.9-19.4Z"/>
  <path class="cls-1" d="M1392.7,562.3c-13.6,16.8-38.5,28-72.4,28-51.9,0-84.1-24.6-84.1-67.5s32.2-67.5,84.1-67.5,53.9,11,67.1,23.3l-27,19.9c-10.9-9.8-22.3-14.1-39.3-14.1-30.8,0-47.6,13.6-47.6,38.4s17.4,38.5,48.1,38.5,27.9-3.1,36.7-11.2v-11.4h-42v-25.9h76.2v49.4Z"/>
</svg>