<svg width="144" height="100" viewBox="0 0 144 100" fill="none" xmlns="http://www.w3.org/2000/svg">
<path d="M117.75 52.5427V25.1922C117.768 22.6037 119.076 21.4981 122.129 21.4981L122.692 21.4899V20.368H108.23V21.4919L108.794 21.5001C111.845 21.5001 113.154 22.6057 113.172 25.1922V52.5366C113.154 55.1251 111.845 56.2287 108.792 56.2287L108.23 56.2369V57.3588L122.692 57.3629V56.2409L122.127 56.2328C119.076 56.2328 117.768 55.1272 117.75 52.5386V52.5427Z" fill="#E83C26"/>
<path d="M74.0594 20.37V21.4899L73.4949 21.5021C70.4419 21.5021 69.1334 22.6057 69.1151 25.1963V51.0005C68.2183 51.3167 67.2299 51.537 66.2679 51.537C65.6952 51.537 65.1184 51.5003 64.5376 51.4208V25.1943C64.5213 22.6057 63.2108 21.5042 60.1618 21.5042L59.5973 21.4919V20.3721H74.0594V20.37Z" fill="#E83C26"/>
<path d="M0 20.37V21.4919L0.564546 21.5001C3.63388 21.5001 4.94436 22.62 4.94436 25.2432V52.4876C4.94436 55.1109 3.63592 56.2307 0.564546 56.2307L0.00203807 56.2389V57.3608L14.4622 57.3649V56.243L13.8976 56.2348C10.8324 56.2348 9.52187 55.119 9.51984 52.5019V39.6467H18.8909C19.9874 39.6651 22.539 40.0873 22.539 43.5959L22.5472 44.1589H23.6681V32.6887H22.5472L22.539 33.2538C22.539 35.7281 21.1409 37.2029 18.7992 37.2029H18.5281L18.3855 37.2152H9.51984V22.8587H19.3902C26.497 22.8587 27.622 30.9385 27.6322 31.0201L27.6485 31.1446H28.6736L26.8536 20.3721H0V20.37Z" fill="#E83C26"/>
<path d="M143.435 56.2328C140.794 56.2328 139.327 54.6213 137.629 52.7548C137.441 52.5488 137.254 52.3407 137.062 52.1347L123.46 36.9806L134.71 25.2167C134.945 24.976 135.167 24.7435 135.383 24.5191C137.121 22.7016 138.271 21.5001 140.882 21.5001L141.444 21.4919V20.37H128.986V21.4919L129.55 21.5001C130.999 21.5001 132.1 21.9489 132.42 22.671C132.664 23.2238 132.434 23.9153 131.755 24.666L118.62 38.4962L135.674 57.3608H144.002V56.2389L143.437 56.2307L143.435 56.2328Z" fill="#E83C26"/>
<path d="M109.08 46.3334L108.209 45.9009L108.142 46.0151C104.934 51.5207 99.8126 54.3112 92.9239 54.3112C84.4557 54.3112 78.5555 46.1702 78.5555 38.8654C78.5555 36.4013 78.9345 31.6708 81.4719 27.6768C83.9992 23.7011 87.9021 21.6857 93.0706 21.6857C98.9403 21.6857 103.039 24.7109 103.039 29.0435C103.039 30.9793 102.637 32.446 101.845 33.3986L101.928 33.5557C104.017 33.4802 107.555 32.3583 107.555 27.8951C107.555 23.4319 100.601 19.1461 92.9646 19.1461C85.328 19.1461 81.0603 22.618 78.5575 25.5288C75.4372 29.1598 73.6458 34.0534 73.6458 38.9531C73.6458 49.6481 81.6411 57.7117 92.2432 57.7117C102.845 57.7117 107.563 49.8419 109.023 46.4578L109.076 46.3334H109.08Z" fill="#E83C26"/>
<path d="M66.2699 53.3811C61.8718 53.3811 57.3391 51.5085 51.7833 47.2227C49.1338 45.1808 46.2275 42.3515 44.8967 41.25C46.4456 41.1276 49.9348 40.6585 53.4627 38.9552C57.6734 36.9214 59.8072 33.9147 59.8072 30.0165C59.8072 23.5277 54.9709 20.3721 45.023 20.3721H29.4562V21.496L30.0208 21.5042C33.0901 21.5042 34.4006 22.6241 34.4006 25.2473V52.4978C34.4006 55.119 33.0901 56.2369 30.0208 56.2369L29.4583 56.245V57.367L43.9204 57.371V56.2491L43.3559 56.2409C40.2886 56.2409 38.9781 55.1231 38.9781 52.5019V22.8546L45.0251 22.8383C48.0047 22.8383 54.9464 23.542 54.9464 30.0655C54.9464 38.3942 44.3912 39.9588 40.8633 40.0322L40.5209 40.0404L40.7675 40.2791C42.6507 42.0925 46.5434 46.5149 50.805 50.0826C50.9742 50.2254 51.1658 50.3866 51.3757 50.5661C54.0986 52.8854 59.7665 57.7137 65.8684 57.7137C70.7619 57.7137 72.3719 53.8156 72.6206 51.4677L72.5085 51.3922C71.0472 52.355 68.6423 53.3831 66.274 53.3831L66.2699 53.3811Z" fill="#E83C26"/>
<path d="M4.82007 65.6957H9.64622C12.4954 65.6957 14.2971 67.3235 14.2971 69.7897V69.8244C14.2971 72.5721 12.0939 74.0061 9.40166 74.0061H6.97227V77.943H4.82211V65.6937L4.82007 65.6957ZM9.47095 72.0641C11.0973 72.0641 12.1103 71.1544 12.1103 69.8774V69.8427C12.1103 68.4087 11.079 67.656 9.47095 67.656H6.97023V72.0662H9.47095V72.0641Z" fill="black"/>
<path d="M16.9527 65.6957H19.1029V77.945H16.9527V65.6957Z" fill="black"/>
<path d="M25.5106 67.6907H21.6301V65.6957H31.5596V67.6907H27.6791V77.945H25.5106V67.6907Z" fill="black"/>
<path d="M37.5066 67.6907H33.6262V65.6957H43.5556V67.6907H39.6752V77.945H37.5066V67.6907Z" fill="black"/>
<path d="M45.288 76.1602L46.5822 74.6201C47.7541 75.6339 48.926 76.2132 50.4464 76.2132C51.7752 76.2132 52.6149 75.6013 52.6149 74.6731V74.6384C52.6149 73.7633 52.1258 73.2921 49.8513 72.7658C47.2466 72.1355 45.7772 71.3665 45.7772 69.1084V69.0737C45.7772 66.9747 47.5258 65.5223 49.9552 65.5223C51.7385 65.5223 53.155 66.0649 54.3962 67.0624L53.2426 68.6902C52.1421 67.8681 51.0395 67.4296 49.9206 67.4296C48.6631 67.4296 47.9273 68.0762 47.9273 68.882V68.9166C47.9273 69.8611 48.4878 70.2813 50.8295 70.8423C53.4159 71.4726 54.763 72.4007 54.763 74.4304V74.465C54.763 76.7579 52.9634 78.1225 50.3934 78.1225C48.5224 78.1225 46.7575 77.4759 45.288 76.1622V76.1602Z" fill="black"/>
<path d="M57.7407 65.6957H63.2292C64.6273 65.6957 65.7299 66.0812 66.429 66.7809C66.9711 67.3235 67.2503 67.9885 67.2503 68.8106V68.8452C67.2503 70.3139 66.4107 71.1013 65.5017 71.5746C66.9365 72.0641 67.931 72.8862 67.931 74.5487V74.5834C67.931 76.7701 66.1314 77.943 63.4025 77.943H57.7386V65.6937L57.7407 65.6957ZM62.7931 70.8565C64.1749 70.8565 65.1002 70.3139 65.1002 69.1941V69.1594C65.1002 68.1966 64.3298 67.603 62.95 67.603H59.8562V70.8565H62.7931ZM63.4228 76.0378C64.8902 76.0378 65.7829 75.4605 65.7829 74.3569V74.3223C65.7829 73.2901 64.9616 72.6781 63.2659 72.6781H59.8562V76.0378H63.4228Z" fill="black"/>
<path d="M70.6437 72.7475V65.6957H72.7938V72.6598C72.7938 74.9342 73.9657 76.1602 75.8876 76.1602C77.8095 76.1602 78.9651 75.0056 78.9651 72.7475V65.6957H81.1153V72.6414C81.1153 76.2989 79.0528 78.1348 75.853 78.1348C72.6532 78.1348 70.6437 76.2968 70.6437 72.7454V72.7475Z" fill="black"/>
<path d="M84.6493 65.6957H90.1032C91.6419 65.6957 92.8485 66.1506 93.6352 66.9196C94.2812 67.5846 94.6481 68.4944 94.6481 69.5612V69.5959C94.6481 71.6093 93.4416 72.8148 91.7296 73.3064L95.0333 77.943H92.4979L89.4897 73.6736H86.7974V77.943H84.6473V65.6937L84.6493 65.6957ZM89.9463 71.7684C91.485 71.7684 92.4633 70.9626 92.4633 69.7204V69.6857C92.4633 68.374 91.5197 67.656 89.9279 67.656H86.7974V71.7684H89.9442H89.9463Z" fill="black"/>
<path d="M96.9736 71.854V71.8194C96.9736 68.3904 99.5966 65.4856 103.285 65.4856C105.417 65.4856 106.73 66.0812 107.987 67.1481L106.624 68.7759C105.68 67.9701 104.753 67.4643 103.198 67.4643C100.942 67.4643 99.2297 69.4409 99.2297 71.7867V71.8214C99.2297 74.3406 100.891 76.1949 103.391 76.1949C104.545 76.1949 105.595 75.8277 106.347 75.2667V72.9739H103.216V71.1013H108.426V76.2459C107.219 77.278 105.489 78.1531 103.32 78.1531C99.4906 78.1531 96.9736 75.4238 96.9736 71.854Z" fill="black"/>
<path d="M111.782 65.6957H113.932V70.7872H119.771V65.6957H121.922V77.945H119.771V72.7822H113.932V77.945H111.782V65.6957Z" fill="black"/>
<path d="M5.09725 1.99498H1.21472V0H11.1442V1.99498H7.26372V12.2494H5.09521V1.99498H5.09725Z" fill="black"/>
<path d="M13.6368 0H15.7869V5.09149H21.626V0H23.7762V12.2494H21.626V7.08647H15.7869V12.2494H13.6368V0Z" fill="black"/>
<path d="M27.4488 0H36.5223V1.92563H29.599V5.10985H35.7356V7.03547H29.599V10.3258H36.6099V12.2514H27.4488V0Z" fill="black"/>
<path d="M5.06866 91.9079H6.55238L8.96342 95.6592L11.3745 91.9079H12.8582V99.8409H11.4662V94.1517L8.96342 97.8908H8.91858L6.43825 94.1742V99.8409H5.06866V91.9079Z" fill="black"/>
<path d="M15.1877 96.4751V91.9079H16.5797V96.418C16.5797 97.8908 17.3379 98.6843 18.5852 98.6843C19.8325 98.6843 20.5784 97.9357 20.5784 96.4751V91.9079H21.9704V96.4078C21.9704 98.7761 20.6334 99.9653 18.5627 99.9653C16.4921 99.9653 15.1897 98.7761 15.1897 96.4751H15.1877Z" fill="black"/>
<path d="M23.6437 98.6843L24.4813 97.6868C25.2395 98.3436 25.9997 98.7169 26.9841 98.7169C27.8441 98.7169 28.3883 98.3212 28.3883 97.7194V97.697C28.3883 97.1299 28.0724 96.8239 26.5989 96.4833C24.9114 96.0753 23.9616 95.5776 23.9616 94.115V94.0926C23.9616 92.732 25.0948 91.7916 26.6682 91.7916C27.8217 91.7916 28.7409 92.1425 29.5439 92.7891L28.7959 93.8437C28.0826 93.3113 27.3693 93.0278 26.6437 93.0278C25.8285 93.0278 25.3536 93.448 25.3536 93.9681V93.9906C25.3536 94.6025 25.7164 94.8738 27.2327 95.2369C28.908 95.6449 29.7803 96.2446 29.7803 97.5603V97.5828C29.7803 99.0678 28.6145 99.951 26.9494 99.951C25.7368 99.951 24.5934 99.5308 23.6437 98.6823V98.6843Z" fill="black"/>
<path d="M31.747 91.9079H37.6228V93.1542H33.139V95.2165H37.1133V96.4629H33.139V98.5945H37.6798V99.8409H31.747V91.9079Z" fill="black"/>
<path d="M39.4856 96.4751V91.9079H40.8776V96.418C40.8776 97.8908 41.6358 98.6843 42.8831 98.6843C44.1304 98.6843 44.8763 97.9357 44.8763 96.4751V91.9079H46.2683V96.4078C46.2683 98.7761 44.9313 99.9653 42.8606 99.9653C40.79 99.9653 39.4876 98.7761 39.4876 96.4751H39.4856Z" fill="black"/>
<path d="M48.5897 91.9079H50.0734L52.4844 95.6592L54.8955 91.9079H56.3792V99.8409H54.9872V94.1517L52.4844 97.8908H52.4396L49.9592 94.1742V99.8409H48.5897V91.9079Z" fill="black"/>
<path d="M58.2073 98.6843L59.045 97.6868C59.8031 98.3436 60.5633 98.7169 61.5477 98.7169C62.4078 98.7169 62.952 98.3212 62.952 97.7194V97.697C62.952 97.1299 62.6361 96.8239 61.1625 96.4833C59.475 96.0753 58.5253 95.5776 58.5253 94.115V94.0926C58.5253 92.732 59.6584 91.7916 61.2318 91.7916C62.3854 91.7916 63.3046 92.1425 64.1076 92.7891L63.3596 93.8437C62.6463 93.3113 61.9329 93.0278 61.2074 93.0278C60.3922 93.0278 59.9173 93.448 59.9173 93.9681V93.9906C59.9173 94.6025 60.2801 94.8738 61.7964 95.2369C63.4717 95.6449 64.344 96.2446 64.344 97.5603V97.5828C64.344 99.0678 63.1782 99.951 61.5131 99.951C60.3004 99.951 59.1571 99.5308 58.2073 98.6823V98.6843Z" fill="black"/>
<path d="M74.3835 98.9229C73.7048 99.5573 72.912 99.9551 71.95 99.9551C70.4786 99.9551 69.3678 99.0596 69.3678 97.6888V97.6664C69.3678 96.6465 69.967 95.9101 71.0553 95.445C70.6029 94.8677 70.3991 94.3679 70.3991 93.7907V93.7682C70.3991 92.7034 71.2591 91.7732 72.6756 91.7732C73.931 91.7732 74.7809 92.6239 74.7809 93.6887V93.7111C74.7809 94.7535 74.09 95.3777 73.0384 95.7734L74.3978 97.1564C74.7035 96.7036 74.9868 96.1814 75.2476 95.6265L76.3013 96.1814C75.9854 96.8158 75.6328 97.44 75.2252 97.9948L76.4705 99.2636L75.4413 100L74.3876 98.9229H74.3835ZM73.5907 98.107L71.8237 96.3058C71.0879 96.622 70.77 97.1095 70.77 97.6215V97.644C70.77 98.313 71.3243 98.8006 72.0947 98.8006C72.6389 98.8006 73.1362 98.5395 73.5887 98.109L73.5907 98.107ZM73.5458 93.7886V93.7662C73.5458 93.2338 73.1729 92.8707 72.6409 92.8707C72.0744 92.8707 71.7014 93.2685 71.7014 93.8233V93.8457C71.7014 94.2435 71.8604 94.5372 72.3006 95.0248C73.1158 94.731 73.5458 94.3557 73.5458 93.7907V93.7886Z" fill="black"/>
<path d="M81.4352 95.8958V95.8734C81.4352 93.652 83.133 91.7712 85.5236 91.7712C86.9054 91.7712 87.7533 92.1567 88.5685 92.8483L87.686 93.9029C87.0746 93.3807 86.4734 93.0522 85.4665 93.0522C84.0053 93.0522 82.8965 94.3333 82.8965 95.8509V95.8734C82.8965 97.5052 83.9726 98.7067 85.5909 98.7067C86.3388 98.7067 87.0175 98.4681 87.5046 98.105V96.62H85.4788V95.4083H88.8518V98.7394C88.0712 99.4084 86.9503 99.9755 85.546 99.9755C83.0657 99.9755 81.4352 98.207 81.4352 95.8958Z" fill="black"/>
<path d="M93.629 91.8508H94.9191L98.4063 99.8409H96.9348L96.1318 97.9255H92.3838L91.5686 99.8409H90.1419L93.629 91.8508ZM95.6223 96.6893L94.2527 93.5153L92.8933 96.6893H95.6223Z" fill="black"/>
<path d="M100.01 91.9079H103.542C104.539 91.9079 105.319 92.2016 105.829 92.7014C106.247 93.1318 106.485 93.7213 106.485 94.4128V94.4353C106.485 95.7387 105.703 96.52 104.594 96.8382L106.734 99.8409H105.093L103.147 97.0769H101.402V99.8409H100.01V91.9079ZM103.44 95.8407C104.437 95.8407 105.071 95.3185 105.071 94.5148V94.4924C105.071 93.6418 104.459 93.1767 103.428 93.1767H101.402V95.8407H103.44Z" fill="black"/>
<path d="M108.533 91.9079H111.489C113.979 91.9079 115.699 93.6193 115.699 95.8509V95.8734C115.699 98.105 113.979 99.8389 111.489 99.8389H108.533V91.9058V91.9079ZM111.489 98.5721C113.154 98.5721 114.24 97.4502 114.24 95.8978V95.8754C114.24 94.3231 113.154 93.1787 111.489 93.1787H109.925V98.5741H111.489V98.5721Z" fill="black"/>
<path d="M117.695 91.9079H123.57V93.1542H119.087V95.2165H123.061V96.4629H119.087V98.5945H123.627V99.8409H117.695V91.9079Z" fill="black"/>
<path d="M125.643 91.9079H126.933L131.178 97.3931V91.9079H132.548V99.8409H131.382L127.013 94.1966V99.8409H125.643V91.9079Z" fill="black"/>
<path d="M134.372 98.6843L135.21 97.6868C135.968 98.3436 136.728 98.7169 137.713 98.7169C138.573 98.7169 139.117 98.3212 139.117 97.7194V97.697C139.117 97.1299 138.801 96.8239 137.327 96.4833C135.64 96.0753 134.69 95.5776 134.69 94.115V94.0926C134.69 92.732 135.823 91.7916 137.397 91.7916C138.55 91.7916 139.469 92.1425 140.272 92.7891L139.524 93.8437C138.811 93.3113 138.098 93.0278 137.372 93.0278C136.557 93.0278 136.082 93.448 136.082 93.9681V93.9906C136.082 94.6025 136.445 94.8738 137.961 95.2369C139.636 95.6449 140.509 96.2446 140.509 97.5603V97.5828C140.509 99.0678 139.343 99.951 137.678 99.951C136.465 99.951 135.322 99.5308 134.372 98.6823V98.6843Z" fill="black"/>
</svg>
