<svg xmlns="http://www.w3.org/2000/svg" width="144" height="51" viewBox="0 0 144 51"><g><g><path fill="#cd232d" d="M115.798 27.292v21.86l27.659-45.566z"/></g><g><path fill="#244479" d="M115.768 27.297v21.89l11.546-30.932 8.959-2.828 7.214-11.875z"/></g><g><path fill="#244479" d="M.116 49.332l.504-1.358h6.156L23.45 3.01h-6.156l.505-1.36h19.838l-.505 1.36h-6.155L14.302 47.974h6.156l-.504 1.358z"/></g><g><path fill="#244479" d="M101.477 50.288c.244-1.021-.63-2.182-2.546-2.182-2.117 0-6.6 2.316-12.349 2.316-12.457 0-16.896-11.444-11.895-24.93C79.69 12.003 92.617.56 105.073.56c4.443 0 6.56 2.045 10.117 2.045 1.232 0 2.844-1.025 3.307-1.908h1.37l-5.557 14.988h-1.37c3.434-9.265-2.489-13.764-8.372-13.764-3.01 0-5.95.547-9.083 2.726-4.1 2.929-8.722 9.674-12.864 20.846-4.144 11.172-4.525 17.917-2.597 20.845 1.516 2.179 4.05 2.726 7.061 2.726 8.828 0 17.146-6.201 20.43-15.056h1.367l-6.038 16.28z"/></g><g><path fill="#244479" d="M49.531 49.332l.504-1.358h6.294l.04-13.764h-16.01L30.193 47.974h6.294l-.504 1.358H22.44l.503-1.358h5.815L63.7.422h.96l1.096 47.552h4.391l-.504 1.358zm7.135-37.329l-15.32 20.842h15.117z"/></g><g><path fill="#cd232d" d="M12.384 32.844h27.493l-1.002 1.365H11.88zm67.867 0l-.163.63-.179.735H56.372l.095-1.365z"/></g></g></svg>