<svg xmlns="http://www.w3.org/2000/svg" id="Layer_1" viewBox="0 0 360 119.8"><defs><style>      .st0 {        fill: #255350;      }    </style></defs><g><path class="st0" d="M65.1,67.2c0-.7-.1-1.2-.4-1.8-.3-.7-.9-1.1-1.6-1.3-.8-.2-1.6-.1-2.4.2-.6.3-.8.5-.5,1.2.3,1.1.9,2,1.7,2.8.4.3.8.6,1.3.7,1,.3,1.6,0,1.9-1.1,0-.2,0-.5,0-.8M67.7,76.9c.9,0,2-.3,2.8-.8.6-.4,1.1-.9,1.3-1.6.3-1.1-.2-2.1-1.3-2.4-.4,0-.7-.1-1.1,0-.9,0-1.7.4-2.5.7-.6.3-1,.8-1.2,1.4-.4,1.2.1,2.3,1.3,2.5.3,0,.5.1.8.1M56.2,113.8h-3.1c0-.2,0-.4,0-.6v-33.7c0-.5,0-1.1.1-1.6.1-1.1.8-1.7,1.8-1.9,1-.2,2-.3,3.1-.4,1.3-.3,2.6-.5,3.9-.8.5-.1.9-.4,1.4-.6.3-.2.5-.4.8-.7.4-.7.2-1.4-.5-1.7-.2,0-.4-.1-.6-.2-2.2-.4-4.6-2.5-5.2-4.7-.4-1.3-.1-2.5.8-3.5,1.2-1.3,2.7-1.8,4.4-1.5,1,.1,1.9.5,2.7,1.2,1.7,1.3,2.4,3,2.1,5.1,0,.7-.3,1.3-.4,2.1.3,0,.5.1.8.1.6,0,1.2,0,1.9,0s1,0,1.5.1c2.1.4,2.5,2.1,2.3,3.6-.1.8-.5,1.6-1.1,2.2-.4.5-.9,1-1.4,1.5-1,1-2.2,1.3-3.5,1.2-1.1-.1-2.3-.4-3.3-.9-.9-.5-1.9-.6-2.9-.3-1.5.4-3,.7-4.5,1.1-.5.1-.8.4-.8.9,0,1.6-.2,3.2-.2,4.8,0,9.5,0,18.9,0,28.4v.9h0Z"></path><path class="st0" d="M19.6,67.5c.1,0,.3,0,.5,0,1.2-.2,1.8-.9,1.6-2.2-.2-1.4-1-2.5-2.3-3.1-1.1-.5-1.9-.1-2.3,1.1-.3,1-.1,2,.2,2.9.4.9,1.1,1.3,2.1,1.3M24.6,53.9v-.5c0-1.1-.7-1.5-1.7-1.3-1.7.4-2.7,1.7-3.5,3.1-.7,1.2.1,2.3,1.5,2.4h.4c.3,0,.7,0,1,0,.9,0,1.5-.5,1.8-1.3.3-.8.5-1.6.5-2.4M30.1,72.5c0-1.9-1.2-3.2-3.1-3.4-.5,0-1.1,0-1.6.2-.5.3-.9.7-.9,1.3,0,.8.2,1.5.8,2.1.7.7,1.5,1.3,2.4,1.6,1.2.5,2.1,0,2.4-1.4,0-.1,0-.3,0-.4M17.9,59.1c.1-.3,0-.6-.3-.8-1.2-1.2-.9-2.6-.6-4,.4-1.4,1.2-2.5,2.6-3.1,1.2-.5,2.4-.7,3.7-.5,1.3.1,2.4.8,3.3,1.7.2.2.4.5.5.8.4,1.4.4,2.8-.7,4-.8.9-1.8,1.6-2.8,2.3-.5.3-.9.5-1.5.8.7,1,1.6,1.8,1.9,2.9s.2,2.3,0,3.5c.3,0,.4,0,.6,0,1.3,0,2.7,0,4,0,1.3,0,2.1.6,2.6,1.7.4.8.6,1.7.7,2.6,0,.8,0,1.7,0,2.5s0,.7-.1,1c-.2.8-.7,1.2-1.4,1.3-1.1.1-2.2.3-3.3.3-.5,0-.9,0-1.4-.1-.8-.2-1.4-.6-1.7-1.3-.8-1.4-1.4-2.9-1.5-4.6,0-.5,0-.6-.6-.7-.3,0-.7,0-1.1,0-1.1.1-2.2,0-3.2-.5-2.8-1.2-3.5-4.6-2.7-6.6.4-.9.9-1.8,1.6-2.5.4-.4.9-.5,1.4-.9"></path><path class="st0" d="M57.2,58.3h0c.3,0,.6,0,.9,0,.8-.1,1.4-.6,1.5-1.3.2-.8,0-1.5-.1-2.2-.1-.5-.4-.8-.9-.8-.7,0-1.3,0-2,0s-.7.3-.9.6c-.3.7-.6,1.5-.8,2.3-.2.8.1,1.2.9,1.5.4,0,.9.1,1.4.2M74.8,57.8c.7,0,1.3-.1,1.9-.4.7-.3.9-.8.8-1.6-.1-.5-.3-.9-.7-1.3-.6-.7-1.3-1.1-2.1-1.5-.5-.2-1.1-.2-1.6,0-.7.3-1.1.9-1.4,1.6-.5,1.2,0,2.4,1.3,2.8.6.2,1.3.3,1.9.4M65.4,53.5c1.8,0,2.7-.7,3.4-2.5.2-.5.2-1-.1-1.4-.3-.5-.7-.9-1.2-1.2-.4-.2-.8-.3-1.3-.2-1.2.2-2.6,1.5-2.8,2.8-.2,1.2.2,2.6,2,2.5M61,51.8c.3-.6.5-1.3.8-1.9.3-.8.7-1.5,1.1-2.2.5-.9,1.3-1.5,2.4-1.6.8-.1,1.7-.2,2.5-.3,1.7,0,2.8.7,3.2,2.4.2.9.3,1.7.4,2.7,0,.2,0,.4,0,.7.2,0,.4,0,.5,0,.8-.1,1.5-.3,2.3-.4,1.4-.2,2.7.2,3.9.8.6.3,1,.7,1.2,1.3.3,1.1.5,2.1.4,3.3-.1,1.2-.8,2.1-1.8,2.6-1.3.7-2.7.7-4.1.4-.9-.2-1.7-.5-2.4-1-1.2-.8-2-1.9-2.2-3.4,0,0,0-.1,0-.2s0,0,0,0c-.1,0-.3.1-.5.2-1.7.9-3.4.8-5-.3-.3-.1-.5-.3-.8-.5,0,.1,0,.3,0,.3.4,2.7-1.6,5.4-4.3,6.2-.9.3-1.8.3-2.7.1-2.5-.6-4-2.9-3.3-5.5.5-2.2,2-3.2,4-3.6,1-.2,2.1-.1,3.1-.2.5,0,1,0,1.5,0"></path><path class="st0" d="M36.4,82.4c.8-1.1,1.5-2.2,2.3-3.3.3.2.5.4.7.5,1.7,1.2,3.5,2,5.6,2.3.4,0,.8.1,1.2.3,1.1.4,1.7,1.2,1.8,2.4,0,.4,0,.8,0,1.3v28h-3.3c0-.3,0-.5,0-.8,0-3.1,0-6.2.1-9.3,0-5.1,0-10.2.1-15.3,0-.5,0-.9,0-1.4,0-.9-.5-1.5-1.3-1.7-.6-.1-1.2-.3-1.8-.4-1.9-.4-3.5-1.3-5.2-2.3,0,0,0-.1-.1-.2"></path><path class="st0" d="M7.2,44.5c0,.6.1,1.1.5,1.6.3.4.7.7,1.2.6.9-.1,1.6-.4,2.3-1.1,1.4-1.4.9-3.5-.9-4.1-.5-.1-.9,0-1.2.1-.6.4-1,.9-1.4,1.4-.3.4-.5.9-.4,1.3M11.8,36.6c1.1,0,1.7-.5,1.9-1.5.3-2.1-1.7-4.1-3.7-3.7-1.2.2-1.9,1.2-1.6,2.4.3,1.6,1.7,2.8,3.4,2.8M12.8,39.6c.1.2.3.4.4.6.7,1.1,1.3,2.3,1.4,3.6.1,1-.2,1.9-.8,2.6-.9,1-2,1.9-3.3,2.4-.5.2-1.1.3-1.6.4-2,.1-3.7-1-4.3-3-.6-1.9,0-4.1,1.7-5.2.5-.4,1.1-.6,1.7-.8.2-.1.4-.1.6-.3.8-.4,1.1-1.2.6-2-.2-.3-.4-.5-.6-.8-.3-.3-.5-.5-.7-.8-1.5-1.7-1.6-4.4-.3-6.2.6-.9,1.5-1.3,2.5-1.3s2.1,0,3.1.5c1.8.8,2.8,2.3,2.8,4.3,0,1.1-.1,2.1-.3,3.1-.1,1-.6,1.7-1.6,2.1-.5.1-.9.3-1.2.7"></path><path class="st0" d="M85.7,72.7c.1.5.1,1,.3,1.5.4,1.3,1.3,1.5,2.5.8.2-.1.3-.3.4-.4.8-1,1.1-3,.4-4.1-.7-1.3-2.1-1.4-3-.2-.2.3-.4.7-.5,1,0,.4,0,.8-.1,1.3M79.3,63.8c-1.5,0-2.3.7-2.5,2.2-.2,1.4.2,2.6,1.1,3.7l.3.3c.5.4,1,.4,1.5-.1,1-1.2,1.6-2.6,1.5-4.2,0-1.2-.7-1.9-1.9-1.9M79.4,61.7c1.3-.1,2.4.4,3.2,1.4.1.1.2.3.4.4,1.2,1.2,1.3,2.7.8,4.3,0,.1-.1.3-.1.4,0,.3,0,.6.3.7.3.1.5.1.7,0,.1,0,.2-.2.3-.3.7-.5,1.3-1.1,2.1-1.6.8-.5,1.6-.5,2.4,0,3,1.9,3.7,5.1,2.1,8.1-1.1,2-4.1,3.1-6.3,1.5-.6-.5-1.2-.9-1.8-1.5-.4-.3-.7-.7-.9-1.1-.4-.7-.4-1.5,0-2.1.2-.3.4-.6.6-.9,0-.1.1-.2.2-.3.2-.4.2-.7-.1-.9-.3-.2-.5-.3-.8,0-.4.3-.8.7-1.1,1.1-1.2,1.5-2.8,1.5-4.3.8-1-.5-1.8-1.3-2.5-2.1-.3-.4-.4-.9-.5-1.3-.2-1.6.2-3.1,1.3-4.3,0,0,.1-.1.2-.2,1-1.3,2.3-1.9,3.7-1.8"></path><path class="st0" d="M31.4,55.8c0,1.6,1.3,2.6,2.8,1.9,1.1-.5,1.9-1.3,2.4-2.5.2-.5.3-1,0-1.5-.4-.9-1.7-1.5-2.7-1.3-1.4.3-2.5,1.8-2.6,3.3M48.1,56.6c0-.9-.1-1.6-.5-2.3-.4-.9-1.1-1.4-2.1-1.5-1.7-.3-3.1,1.3-2.5,3,.5,1.5,1.4,2.5,2.9,2.9.1,0,.3,0,.4,0,.8,0,1.3-.2,1.5-1,.1-.4.2-.9.3-1.2M39.7,53.8c.3-.4.5-.7.8-.9,1.1-.9,2.4-1.5,3.8-1.6.7-.1,1.4-.1,2.1-.1.8,0,1.6.3,2.2.9,1.5,1.5,2.1,4.3,1.4,6.3-.5,1.3-1.4,2.1-2.8,2.2-1.7.1-3.4,0-4.8-1.1-.8-.5-1.4-1.2-1.8-2.1-.2-.5-.5-.7-1-.5-.4,0-.8.2-1.1.4-.7.5-1.4,1-2.1,1.6-.7.6-1.5,1.1-2.4,1.2-1.5.3-4.4-.9-4.8-2.9-.1-.8-.1-1.5,0-2.3.7-2.6,3-4.4,5.5-4.4.9,0,1.7.3,2.5.8.8.5,1.4,1.2,2,2,.2.3.3.4.5.7"></path><path class="st0" d="M33,27.7c0,.5,0,.9.4,1.3.9,1.1,2.5,1,3.3-.1.5-.7.8-1.5.9-2.4.1-1.2-.6-2.3-1.7-2.7-.5-.2-.9,0-1.3.3-.9,1-1.3,2.2-1.6,3.6M39.9,25.8c0,.5-.1,1.1-.2,1.6,0,.5.1.9.5,1,.2,0,.4,0,.6,0,.5-.2,1.1-.3,1.7-.3,1.1.1,1.6.7,1.6,1.8s-.5,2-1.5,2.3c-.8.3-1.4.1-1.8-.7-.1-.3-.3-.6-.5-.9-.2-.3-.5-.5-.8-.7-.4-.2-.8-.1-1.1.3-.9,1.2-2.3,1.6-3.6,1.9-.5.1-.9,0-1.4-.3-1.6-.8-2.4-2.2-2.5-4-.1-1.8.4-3.5,1.5-5,1.4-2,4.5-2.3,6.3-.6.8.8,1.2,1.8,1.2,3.3"></path><path class="st0" d="M85.5,33.6c.7,0,1.3-.2,1.8-.5.9-.6,1.1-1.6.5-2.4-.7-.8-1.6-1.6-2.6-2-.3-.1-.7-.2-1-.3-1.3-.1-2.5.9-2.4,2.3,0,1.2.7,2,1.7,2.5.7.3,1.3.4,2,.5M85.5,35.6c-1.5.1-2.7-.4-3.7-1.5-.5-.5-1-1.2-1.4-1.8-.5-.7-.8-.8-1.6-.4-.6.3-1.2.6-1.8.8-.1,0-.3,0-.4.1-1,.1-1.5-.4-1.5-1.4s0-.8.1-1.1c.2-.7.6-1.2,1.3-1.3s1.4,0,1.9.7c0,0,0,0,0,0,.2.3.4.5.8.4.4,0,.4-.4.5-.7.2-.5.4-1.1.7-1.5,1.2-1.8,3-2.5,5.1-2.1.9.2,1.8.6,2.6,1.1.7.4,1.1.9,1.4,1.6s.6,1.5.8,2.3c.3,1.2,0,2.3-.9,3.1-.9,1-2,1.5-3.3,1.5-.2,0-.4,0-.6,0"></path><path class="st0" d="M54.1,26h0v.5c.1,1.5,1,2.7,2.4,3.1.9.3,1.7,0,2.2-.6.5-.7.6-1.8,0-2.5-1-1.2-2.3-1.7-3.8-1.9-.6,0-.8.2-.8.9,0,.1,0,.3,0,.4M54.9,22c3.6.1,5.9,2.1,6.6,5.6.2,1-.1,1.9-.7,2.7-1.1,1.5-3,2.3-4.8,1.8-2.3-.7-4-2.1-4.9-4.4-.4-.9-.4-2-.1-2.9.5-1.8,1.9-2.8,3.9-2.8"></path><path class="st0" d="M78.2,18.3c-.6.1-1.2.3-1.7.5-.9.4-1.1,1-.5,1.7.5.8,1.2,1.4,2,2,1,.7,2,.7,3.2-.1.8-.5.9-1.3.3-2.1-.5-.7-1.1-1.2-1.8-1.5-.4-.2-.9-.3-1.5-.5M79.2,25.6c-.8,0-1.5-.2-2.1-.7-.5-.4-1.1-.8-1.5-1.3-.5-.6-1.1-1.2-1.6-1.9-1.2-1.6-1-3.4.4-4.7,1.5-1.4,4.2-2.1,6.4-.5,1.4.9,2.4,2.2,3.3,3.7.4.7.4,1.4.1,2.1-.1.4-.4.7-.6,1-1,1.1-2.1,1.9-3.6,2.2-.3,0-.6.1-.9.1"></path><path class="st0" d="M40.7,47.8c.4-.1.7-.2,1.1-.4.7-.4.9-.9.5-1.7-.3-.5-.7-1-1-1.5-.4-.5-.8-.9-1.4-1.1-.7-.3-1.3-.2-1.9.5-.5.5-.6,1.1-.3,1.8.4.8,1.1,1.5,1.9,2,.4.2.7.3,1.1.4M35,44.9c.1-.7.2-1.5.4-2.2.1-.6.6-1.1,1.1-1.4,1.1-.7,2.3-1,3.5-.6,2.5.7,4.2,2.5,4.9,5.1.1.4,0,1,0,1.5-.3,1.3-1,2.3-2.1,3-1,.6-2,.7-3.1.3-1.9-.7-3.2-2-4.2-3.7-.4-.6-.5-1.3-.5-2"></path><path class="st0" d="M37.9,12.9c-.2,0-.5,0-.7.1-1.5.5-1.8,1.4-1.1,2.6.4.7.9,1.4,1.5,2,.3.3.7.5,1,.7,1.1.5,2.1-.4,2.2-1.2,0-.7,0-1.4-.1-2-.3-1.2-1.5-2.1-2.8-2.2M38,10.7c2.1.1,3.8,1.3,5,3.4.6,1,.5,2.1.3,3.3,0,.1,0,.3,0,.4,0,1.2-.7,1.8-1.6,2.3-1.5.8-3,.8-4.5.2-1.7-.7-3-2-3.7-3.7-.7-1.5-.4-2.9.6-4.1.9-1.2,2.2-1.7,4-1.7"></path><path class="st0" d="M70.5,40.1s0,0,0,0c.1,0,.2,0,.3,0,.8,0,1.6-.2,2.3-.7,1.3-.9,1.1-2.7-.3-3.4-.6-.3-1.2-.4-1.9-.4-1.1,0-1.9.5-2.4,1.5-.8,1.3-.2,2.7,1.3,3,.2,0,.4,0,.7.1M70,42.4c-.5,0-.9,0-1.4-.2-1.9-.4-3-1.8-3-3.8s0-.9.1-1.4c.3-1.5,1.1-2.5,2.5-3.1,2.3-1,4.5-.7,6.7.4,1.6.8,2.1,2.4,1.5,4.2-.4,1.2-1.1,2-2.1,2.7-1.2.8-2.8,1.2-4.3,1.2"></path><path class="st0" d="M32.8,39.6c0-1.2-.4-1.7-1.5-1.7-.3,0-.6,0-.9.1-.9.2-1.9.4-2.7,1.1-.7.6-.7,1.3-.4,2.1.3.7.8,1.1,1.5,1.1,1.1,0,2.1-.3,3-1.1.6-.4.9-1.1.9-1.6M30.6,35.3c3,0,5.2,2.8,4.6,5.4-.2.7-.5,1.3-1.1,1.8-1.4,1.3-3.1,2-5,2.1-.8,0-1.6-.2-2.3-.7-.5-.3-1-.7-1.5-1.1-.8-.7-.9-1.7-.8-2.7.2-1.5,1-2.7,2.3-3.5,1.3-.8,2.7-1.1,3.8-1.2"></path><path class="st0" d="M66.1,13.2c.9-.1,1.7-.3,2.2-.5,1.1-.5,1.3-2.4.3-3-1.3-.8-2.7-1-4.1-.6-.8.3-1.3,1.1-1.3,1.9,0,.9.5,1.5,1.3,1.8.5.2,1.1.3,1.6.4M66,15.3c-1.5,0-2.9-.4-4.1-1.3-2-1.3-2.1-4.3-.2-5.8,1.2-.8,2.4-1.6,3.9-1.5,1.5,0,2.9.4,4.2.9,1.6.7,2.5,2.7,2,4.3-.3.8-.8,1.5-1.5,2-1.1.8-2.8,1.3-4.3,1.3"></path><path class="st0" d="M67.2,19.1c-1.3.1-2.5.7-3.5,1.8-.9.9-.6,2.3.5,3,.5.3,1.1.4,1.6.3,1.3-.3,2.3-1,3.1-2,.8-.9.8-1.8-.3-2.7-.4-.3-.8-.4-1.4-.4M61.1,22.2c0-.9.4-1.7.9-2.3.7-.7,1.4-1.4,2.1-2,1.2-.9,2.6-1.2,4-1.2.8,0,1.5.2,2.1.8,1.4,1.3,2,2.8,1.7,4.7-.2,1.2-.8,2-1.8,2.7-1.2.8-2.6,1.3-4,1.5-1.9.2-3.8-.9-4.6-2.6-.2-.5-.3-1-.4-1.5"></path><path class="st0" d="M18.5,21.2h0c.6,0,1.2,0,1.8-.2.9-.3,1.4-1,1.4-2,0-.7-.3-1.3-.6-1.9-.6-1-1.2-1.1-2.2-.5,0,0-.1.1-.2.1l-2.1,2.1c-.1.1-.2.3-.3.5-.2.4-.1.8.1,1.2.3.4.6.5,1,.5.4.1.8.1,1.1.1M24.2,18.6v1.7c0,.7-.3,1.2-.8,1.6-1.9,1.1-3.8,1.8-6,1.7-1.7,0-2.7-1.1-3-2.8-.2-1.1,0-2,.5-2.9.3-.6.7-1.1,1.1-1.7.7-1.1,1.5-1.7,2.7-1.9,1.3-.2,2.5-.3,3.8-.1.8.1,1.3.6,1.5,1.3.3,1,.3,2,.3,3.1"></path><path class="st0" d="M27.2,85.6c1.6,0,3.2-1.5,3.4-3.1,0-.3,0-.6-.1-.8-.4-.9-1.3-1.2-2.2-1-1,.3-1.8.8-2.6,1.3-.4.3-.5.7-.6,1.2-.1,1.3.9,2.4,2.1,2.4M27.2,88c-1.6,0-2.8-.7-3.5-2.2-.9-1.8-.8-3.5.4-5.2,1-1.5,2.3-2.5,4.1-2.8,2.9-.5,5.1,1.9,4.8,4.6-.2,2-1.3,3.5-2.8,4.8-.8.6-1.7.8-2.9.8"></path><path class="st0" d="M79.6,41.8c.1.4.1.8.3,1.2.5,1.2,2.3,2.3,3.6,2.1,1.4-.1,2-1.3,1.5-2.5-.3-.7-.6-1.3-1-1.9-.3-.4-.7-.7-1.1-1-.9-.6-2.1-.3-2.8.6-.3.4-.4.9-.5,1.5M87.4,42.9c0,.3,0,.8-.2,1.4-.1.8-.5,1.4-1.1,1.9-1.1.9-2.4,1.3-3.8,1-.7-.1-1.3-.3-1.9-.5-.8-.3-1.4-.8-1.8-1.6-.5-.9-.9-1.9-1.1-2.9-.1-.8,0-1.6.4-2.3,1.1-1.7,2.6-2.8,4.7-2.8.3,0,.7,0,1,.1,1.6.5,2.8,1.7,3.5,3.2.3.7.3,1.4.3,2.4"></path><path class="st0" d="M93.2,54.9c0-.8-.2-1.7-.7-2.5-.3-.5-.7-.9-1.3-1.1-1.2-.3-2.4.4-2.7,1.7-.4,1.4.5,3.4,1.8,4,.3.1.7.2,1.1.2,1.2-.1,1.9-1,1.9-2.4M96,54.3c0,.5-.1,1.1-.1,1.7-.1,1.2-.7,2-1.7,2.7-1.1.7-2.3.9-3.5.7-.3,0-.5-.1-.8-.2-2.4-.6-3.8-2.8-3.5-5.3.2-1.3.7-2.5,1.6-3.6.9-1.1,2-1.5,3.3-1.1,1.4.4,2.7,1.2,3.8,2.1.6.5.8,1.2.9,1.9,0,.4,0,.7,0,1.1t0,0"></path><path class="st0" d="M46.4,35.6c0,1,.4,2.3,1.1,3,.7.8,1.5,1.1,2.4.9.7-.1.9-.4,1-1.1,0-.4,0-.8,0-1.3-.2-1-.4-2-1.1-2.8-.6-.7-1.3-.9-2.3-.5-.7.3-1.1.8-1.1,1.7M43.8,35.5c-.2-1.2.4-2,1.3-2.7,1.2-.9,2.5-1.1,3.9-.7,1.6.4,2.9,1.2,4,2.5,1.6,1.9,1.2,5-.8,6.4-.8.6-1.8.8-2.8.6-1.6-.3-3-1.1-4.3-2.1-.9-.8-1.3-1.9-1.3-3.1v-.8"></path><path class="st0" d="M7.1,68c0,1.7,1.1,3,2.5,3.3,1.4.2,2.4-.8,2.1-2.2-.1-.8-.5-1.6-1-2.3-.6-.8-1.6-1.1-2.6-.7-.8.3-1.1.9-1.1,2M14.5,69.2c0,.5-.1,1-.2,1.5-.6,2.5-2.5,3.2-4.3,3-2.7-.4-4.8-2.5-5.2-5.3-.1-.7-.1-1.5,0-2.2.1-.9.7-1.5,1.6-1.7.1,0,.3,0,.4,0,.9,0,1.8-.2,2.7-.3,2.7-.2,4.8,1.6,5,4.4,0,.3,0,.5,0,.7h0"></path><path class="st0" d="M51.5,13.2c.6-.1,1.2-.1,1.8-.3.8-.3,1.2-.8,1.1-1.7,0-.8-.5-1.3-1.1-1.7-1.1-.6-2.4-.8-3.6-.7-1.6.3-2.2,1.9-1.2,3.2.4.5.9.8,1.5.9.5.2.9.2,1.5.3M51.3,15.5c-1,0-2-.1-2.8-.5-1.7-.7-2.9-2.5-2.8-4.4,0-1.2.5-2.4,2.1-2.8.8-.2,1.5-.6,2.2-1,.6-.4,1.2-.6,1.9-.4.8.2,1.7.4,2.4.7,1.7.8,2.4,2,2.3,4-.1,2.4-1.7,4-4.1,4.2-.4.1-.9.1-1.2.2"></path><path class="st0" d="M48.5,74.4c0-1.1-.2-2-.5-2.8-.2-.5-.5-.9-.9-1.1-.9-.4-1.7-.3-2.5.2-.8.4-1,1.2-.9,2.1.1,1.6,1.9,3.4,3.4,3.6.7,0,1-.1,1.2-.8.1-.5.2-.9.3-1.2M51.3,73.9c0,2.6-2.4,4.6-4.9,4.1-1.5-.3-2.9-1-4-2-1.3-1.3-1.6-3-1.2-4.8,0-.3.3-.7.4-.9,1-1.5,3.2-2.3,5-1.8,2,.6,3.5,1.9,4.3,3.9.3.5.3,1.1.4,1.6"></path><path class="st0" d="M38.6,63c-1.3,0-2.5.5-3.6,1.2-.4.3-.6.8-.4,1.3.1.5.3.9.5,1.4.2.5.6.8,1.2.9.9.2,1.8,0,2.7-.4.6-.3,1.1-.8,1.2-1.4.1-.5.2-1.1.2-1.6,0-.9-.4-1.3-1.3-1.4h-.5M36.4,69.6c-.5,0-.9,0-1.4,0-1.2-.1-1.8-.7-2-1.9-.2-1.2-.3-2.4-.3-3.6,0-1,.5-1.7,1.4-2.1,1.2-.5,2.5-.9,3.7-1.2.9-.2,1.7,0,2.5.4.5.3,1.1.6,1.6.9,1,.7,1.4,1.6,1.2,2.8-.3,1.6-2.1,4.1-4.2,4.4-.9.1-1.7.1-2.6.2h0Z"></path><path class="st0" d="M73.6,87.2c1.2,0,2.7-.8,3.3-1.9.1-.2.2-.4.3-.6.4-1.2-.2-2.4-1.3-2.7-1-.3-2-.2-2.9.3-.9.5-1.4,1.3-1.3,2.3,0,.4.1.8.2,1.1.2,1,.7,1.4,1.7,1.4M73,89c-.6,0-1.2-.1-1.7-.3-.7-.2-1.1-.6-1.4-1.3-.3-.9-.5-1.8-.5-2.7,0-1.2.5-2.2,1.5-2.9.7-.5,1.4-.9,2.1-1.4.7-.4,1.5-.5,2.4-.4.9.1,1.7.4,2.5.7.9.3,1.3.9,1.3,1.9s.1,2,.2,3.1c0,1.1-.4,1.9-1.3,2.3-.4.2-.8.4-1.3.5-1.3.2-2.6.4-3.9.6"></path><path class="st0" d="M61.5,42c0-1.6-.7-2.7-2.1-3.3-.8-.3-1.5-.1-2.1.2-.6.3-.8.8-.9,1.5,0,.4,0,.8,0,1.3.2,1.8,1.6,3.1,3.3,2.9.9,0,1.5-.5,1.7-1.4.1-.3.1-.7.2-1.1M63.7,43.2v.5c0,1-.2,1.1-1.1,1.5-1.2.5-2.5.8-3.9.7-.7,0-1.3-.2-2-.4-1-.3-1.6-1-1.9-2.1-.2-.9-.3-1.8-.5-2.7,0-.5,0-1.1.5-1.4.5-.4.7-.9.9-1.5.5-1.6.7-1.7,2.3-1.7s3.4.8,4.6,2.3c.4.5.7,1.1.7,1.7.1,1,.2,2,.3,3.1h0"></path><path class="st0" d="M71.9,29.6c0,.7-.2,1.3-.6,1.8-.4.5-.9.6-1.5.5-1.6-.4-2.3-2.6-1.2-3.9.6-.7,1.5-.9,2.3-.5.9.4,1.3.2,1.4-.9h0c0-1.5,1.1-2.2,2.5-1.7.4.1.7.4,1,.7.5.5.5,1.1.3,1.7-.4,1.1-2,1.9-3.2,1.5-.8-.3-1-.1-1,.7,0,0,0,0,0,0"></path><path class="st0" d="M12.7,23.5c-.1.5-.2.9-.4,1.4-.5,1.1-1.7,1.5-2.8,1.1-.5-.2-.8-.5-1-1-.3-.7-.3-1.5,0-2.2.2-.6.6-.9,1.2-1.1.7-.2,1.3-.1,2,.1.8.3.9.9,1,1.7"></path><path class="st0" d="M15.5,79.2c0,1.4-1.3,2.2-2.5,1.6-.7-.3-1.2-.8-1.6-1.5-.7-1.2.1-2.9,1.5-3.1.2,0,.4,0,.6,0,1.1.3,2.1,1.8,2.1,2.9"></path><path class="st0" d="M51,49c0-.4.1-.8.2-1.2.3-1.2,1.6-1.7,2.6-1.2.8.4,1.3,1.1,1.4,2,0,1-.4,1.8-1.3,2.3-.9.5-2.2,0-2.7-.9-.1-.4-.2-.8-.3-1.1"></path><path class="st0" d="M74.3,44.5c1.4,0,2.5,1.4,2.4,2.8-.1,1.1-1.3,1.9-2.4,1.7-.9-.2-1.6-.7-2-1.5-.5-.8-.2-2,.7-2.5.4-.2.9-.3,1.3-.5"></path><path class="st0" d="M31.2,48.7c0,.2,0,.5-.2.8-.5,1.2-2.1,1.5-3,.5-.5-.5-.8-1.2-.9-2-.1-.7.1-1.2.7-1.6.3-.2.5-.4.9-.5.9-.3,1.6,0,2,.8.4.6.5,1.2.5,2"></path><path class="st0" d="M61.2,17v.3c0,1.5-1.5,2.4-2.9,1.8-.4-.1-.7-.5-.8-.9-.3-.8-.3-1.5,0-2.3.3-.9,1-1.4,1.9-1.5.8,0,1.3.3,1.6,1.1.1.4.2.9.3,1.4,0,0,0,0-.1,0"></path><path class="st0" d="M67.9,62.5c-1.2,0-2.1-.9-2-2.1,0-1.3.9-2.4,2.1-2.4,1.1,0,2.1,1.1,2.1,2.4,0,1.3-.9,2.1-2.1,2.1"></path><path class="st0" d="M22,33.2h.2c1.1,0,1.8.5,1.9,1.3.2,1.2-.4,2.4-1.4,2.7-.6.2-1.2.2-1.7,0-.1,0-.3-.1-.4-.2-.7-.5-.8-1.5-.6-2.5.2-.8.8-1.2,1.6-1.3.2,0,.3,0,.4,0h0Z"></path><path class="st0" d="M18.5,48.7c-.1.5-.2,1.1-.4,1.5-.1.3-.3.5-.5.8-.7.8-1.9.6-2.4-.4-.5-1-.5-2.1-.1-3.1.3-.8,1-1.1,1.8-1.1.8,0,1.2.5,1.4,1.3,0,.3,0,.6,0,.9q0,0,0,0"></path><path class="st0" d="M80,79.9c0-1.4,1-2.4,2.2-2.3.1,0,.3,0,.4,0,.9.3,1.5,1.5,1.3,2.5-.1,1-1,1.8-2,1.8-1.2,0-2-.8-2-2.1"></path><path class="st0" d="M10.1,62.4c-.8,0-1.5-.5-1.6-1.6,0-.4,0-.9,0-1.3.1-.7.6-1.1,1.2-1.2.6-.1,1.1,0,1.7.1.5.2.8.5.9,1,.2.8,0,1.6-.5,2.3-.4.5-.9.8-1.8.8"></path><path class="st0" d="M17.7,43.2c-1,0-1.7-.5-1.8-1.6,0-.5,0-1,0-1.5.1-.6.5-1,1.2-1.1.6-.1,1.2,0,1.7.1.5.2.8.5.8,1,.1.8,0,1.5-.4,2.1-.4.6-.9.9-1.6.9"></path><path class="st0" d="M6.1,53.9c1.5,0,2.1.9,1.8,2.4-.3,1.3-1.2,2-2.4,1.7-.7-.1-1.2-.5-1.3-1.2-.1-.6-.1-1.2,0-1.7.2-.9.9-1.3,1.9-1.2"></path><path class="st0" d="M24.4,45.3c-.1.5-.2.9-.4,1.4-.5,1-1.6,1.4-2.6.9-.8-.4-1.1-1.2-.9-2.4.1-.9.6-1.5,1.5-1.6.4,0,.8,0,1.2,0,.9.2,1.3.7,1.4,1.7"></path><path class="st0" d="M10.9,51.6c1.6,0,2.3.9,1.9,2.5s-1.3,2-2.5,1.6c-.6-.1-1.1-.5-1.2-1.2,0-.5-.1-1.1,0-1.6.2-.9.9-1.3,1.9-1.3"></path><path class="st0" d="M29.5,31.3c0,.5-.1,1-.4,1.4-.5.9-1.6,1.2-2.6.8,0,0-.1,0-.2-.1-.7-.4-1-1.5-.7-2.5.2-.9.7-1.3,1.6-1.4h.7c1.1,0,1.5.6,1.5,1.8"></path><path class="st0" d="M39.7,73.9c0,.3-.1.7-.2,1.1-.1.5-.5.8-1,.9-1.3.3-2.5-.6-2.5-1.9,0-1.1.4-2,1.2-2.4,1.2-.5,2.2.1,2.4,1.4,0,.3,0,.5.1.9"></path><path class="st0" d="M24.3,29.2c0,.7-.1,1.2-.4,1.7-.4.6-.9.9-1.6.9-.7,0-1.1-.5-1.3-1.1-.2-.6-.3-1.2-.2-1.9.2-1.2,1.7-1.9,2.8-1.2.3.2.4.5.6.8.1.3.1.7.1.9"></path><path class="st0" d="M21.7,75.1c.3,0,.5,0,.7,0,.7.1,1.1.5,1.2,1.2.1.7,0,1.3-.3,1.9-.5.9-1.6,1.2-2.5.8-.9-.4-1-1.2-1-2.1,0-.9.4-1.4,1.1-1.7.3-.1.7-.2.8-.2"></path><path class="st0" d="M24.3,25c0-.7.3-1.2.9-1.6.3-.2.7-.3,1-.2.9.3,1.7.8,2.1,1.7.5,1,0,2.1-1.1,2.3-.1,0-.3,0-.4,0-.8-.1-1.4-.5-2-1-.3-.3-.5-.7-.5-1.2"></path><path class="st0" d="M65.6,85c-1.1,0-1.9-.8-1.9-1.9,0-1.2.9-2.1,2-2.1,1.1,0,2,.9,2,2,0,1.1-.9,2-2.1,2"></path><path class="st0" d="M75.4,75.7c0-1.2.8-2,2-2.1,1.1,0,2,.9,2,2s-.9,1.9-2.1,1.9-1.9-.8-1.9-1.9"></path><path class="st0" d="M31.2,20c0,.8-.4,1.5-1.2,1.9-.8.4-1.4.1-2-.4s-.8-1.1-.6-1.8c.2-.6.6-1.1,1.1-1.5.4-.3.9-.4,1.3-.1.8.4,1.3,1,1.3,2"></path><path class="st0" d="M83.3,61c-1.2,0-2.1-1.1-1.8-2.3.2-.7.5-1.2,1.1-1.6.7-.5,1.4-.4,2,.2.5.6.8,1.3.7,2.1,0,.9-.9,1.6-1.9,1.6"></path><path class="st0" d="M95,66c0,.8-.3,1.3-1,1.6-.8.3-1.5.4-2.1-.2-.5-.5-.8-1.1-.6-1.9.2-.7.6-1.2,1.2-1.6.6-.4,1.3-.3,1.8.2s.7,1.2.8,2"></path><path class="st0" d="M45.7,23.2c0,.8-.4,1.4-1.1,1.9-.6.4-1.4.3-2.1-.3-.6-.5-.8-1.1-.6-1.9.2-.6.5-1.1,1.1-1.5.5-.4.9-.4,1.5-.1.8.4,1.2,1,1.2,2"></path><path class="st0" d="M49.4,18.2v.3c0,1.3-1.3,2.1-2.5,1.6-.4-.1-.6-.4-.7-.7-.3-.7-.3-1.5,0-2.1.3-.9,1.2-1.4,2.1-1.2.5.1.8.4.9.8.1.4.2.9.3,1.3h0"></path><path class="st0" d="M18.7,28.6c0,1.1-1,1.9-2.1,1.6-.6-.2-1.1-.5-1.5-1.1-.6-.7-.5-1.6.2-2.4.6-.7,1.2-.8,2.1-.3.8.5,1.3,1.3,1.3,2.1"></path><path class="st0" d="M30.4,62.4c0,.4-.1.8-.5,1.1-.8.5-1.6.8-2.5.5-.7-.2-1.1-.7-1.2-1.3-.1-.7.2-1.2.7-1.5.4-.2.7-.4,1.1-.5,1.3-.4,2.3.5,2.3,1.8"></path><path class="st0" d="M15.1,73.8c0-.2,0-.3,0-.5.2-1.3,1.7-2,2.8-1.2.2.1.4.4.5.7.3.8.1,1.5-.2,2.2s-1.1,1.1-1.7,1c-.7-.1-1.2-.6-1.3-1.5,0-.3,0-.5,0-.7"></path><path class="st0" d="M53.7,66.4c-.8,0-1.3-.2-1.8-.7-.5-.6-.5-1.2,0-1.8s1.3-1,2.2-1.1c.7-.1,1.1.1,1.4.8.5,1,.1,2.1-.9,2.5-.4.1-.7.2-.9.3"></path><path class="st0" d="M57,70.7c0,.4,0,.8-.2,1.1-.1.5-.5.8-1.1.9-1.2.1-2.1-.7-2.1-1.9s.3-1.5.9-2c.9-.7,1.9-.4,2.2.7.1.3.1.7.2,1.1"></path><path class="st0" d="M49.3,65.2c0,.2,0,.4,0,.5-.1.9-.7,1.4-1.4,1.5-.9,0-1.7-.4-1.9-1.2-.2-.6-.2-1.1,0-1.7.3-.8.9-1.2,1.7-1.1s1.4.6,1.6,1.4c0,.3,0,.5,0,.6"></path><path class="st0" d="M69.5,66c0-1.1.9-1.9,2-1.9,1.1,0,1.9.9,1.9,1.9s-.8,1.7-1.9,1.7c-1.2,0-2-.7-1.9-1.7"></path><path class="st0" d="M49.4,27.9c0,1.5-1.1,2.3-2.5,1.9-.2,0-.4-.2-.5-.4-.8-.9-.4-2.8.7-3.3,1-.4,2.1-.3,2.3,1.4,0,.2,0,.3,0,.4"></path><path class="st0" d="M42.9,6.2h.3c.7,0,1.2.4,1.3.9.1.5,0,1.1-.6,1.5-.6.4-1.2.7-1.9.8-.7.1-1.2-.1-1.6-.7-.4-.8-.3-1.4.5-1.9.5-.3,1.5-.6,2.1-.6"></path><path class="st0" d="M54,17.5c.3,0,.7.1.9.3.7.3.9,1.2.4,1.8-.8.9-1.7,1.3-2.9,1.2-.7,0-1-.5-1.1-1.1-.1-.6,0-1,.5-1.4.6-.4,1.3-.7,2.1-.8"></path><path class="st0" d="M40.6,34.6c0,1.3-1.1,2.1-2.3,1.6-.3-.1-.5-.2-.7-.4-.7-.5-.9-1.2-.6-1.9.7-1.8,1.9-1.6,2.9-.6.4.3.6.8.6,1.3"></path><path class="st0" d="M50.4,45.8c0,1.3-1.1,2-2.2,1.6,0,0-.1,0-.2,0-1.5-.7-1.7-2.3-.3-3.3.3-.2.7-.3,1.1-.2.9.3,1.6,1.1,1.7,2"></path><path class="st0" d="M91.3,47c-1.2,0-2-1.1-1.6-2.3.2-.5.5-1,1.1-1.3.6-.4,1.1-.3,1.6.2.5.6.8,1.3.7,2.1,0,.8-.8,1.3-1.7,1.4"></path><path class="st0" d="M83.6,51c0,.7-.3,1.2-.9,1.5-.7.3-1.4.4-2-.1-.5-.4-.8-1-.6-1.7.2-.6.5-1.1,1-1.5.6-.4,1.3-.3,1.8.2.4.4.6,1,.6,1.7"></path><path class="st0" d="M18.9,81c1.2,0,1.7.5,1.6,1.7s-.8,2-2,1.9c-.7,0-1.1-.4-1.3-1,0-.2-.1-.5-.1-.7,0-1.2.5-1.9,1.7-1.9"></path><path class="st0" d="M91.6,39.1c0,.6-.1,1.1-.6,1.4-.5.4-1.1.5-1.7.2-.7-.4-.9-1-.9-1.7,0-.7.4-1.4.9-1.9.5-.5,1.2-.4,1.7.1.5.6.6,1.2.7,1.9"></path><path class="st0" d="M64.9,32.6c0,.5-.1.9-.6,1.3s-1,.5-1.6.3c-.6-.3-.9-.8-1-1.5,0-.9.3-1.7,1.1-2.3.5-.4,1-.3,1.4.1.4.4.7,1.2.7,2.1"></path><path class="st0" d="M28.6,13.1c.6,0,1.1.1,1.6.4.4.3.7.6.7,1.1,0,.5-.3.9-.8,1-.8.3-1.7.4-2.6.1-.7-.2-1-.7-1-1.5,0-.5.3-.9.7-1,.4-.1.9-.2,1.3-.3"></path><path class="st0" d="M87.8,61.7c1,0,1.5.7,1.3,1.6,0,.3-.1.6-.3.9-.4.9-1.2,1.1-2.1.7-.8-.4-1.2-1.3-.8-2.1.3-.7.9-.9,1.6-1.1h.2"></path><path class="st0" d="M34.3,76.2c.4,0,.7,0,1.1.2.3,0,.5.4.5.7,0,.9-.9,2.1-2.2,1.5-.5-.2-.8-.5-1-1-.3-.6,0-1.1.5-1.2.4,0,.8-.1,1.1-.1"></path></g><g><path class="st0" d="M111.6,12.8v23.4h8v3.9h-12.2V12.8s4.2,0,4.2,0Z"></path><path class="st0" d="M129.4,12.8v27.3h-4.2V12.8s4.2,0,4.2,0Z"></path><path class="st0" d="M136.4,39.9V12.7l19.8,18.4V12.6h4.2v27.2l-19.8-17.8v17.9h-4.2Z"></path><path class="st0" d="M241.8,39.9V12.7l19.8,18.4V12.6h4.2v27.2l-19.8-17.8v17.9h-4.2Z"></path><path class="st0" d="M187.6,19c-3-2.7-5.9-2.9-7.4-2.9-5.9,0-9.9,4.3-9.9,10.1s4.2,9.9,10,9.9,5.8-1.6,7.4-3.1v4.8c-2.7,1.6-5.6,2-7.5,2-5,0-8-2.2-9.6-3.7-3.2-2.9-4.4-6.3-4.4-10s2.1-8.3,4.4-10.4c2.8-2.6,6.1-3.5,9.9-3.5s4.9.4,7.3,1.9v4.8h0Z"></path><path class="st0" d="M219.8,26.1c0,7.8-6,13.8-14.2,13.8s-14.2-6-14.2-13.8,6-13.8,14.2-13.8c8.2,0,14.2,6,14.2,13.8ZM215.6,26.1c0-5.9-4.2-10-10-10s-10,4.1-10,10,4.2,10,10,10,10-4.1,10-10Z"></path><path class="st0" d="M229,12.8v23.4h8v3.9h-12.2V12.8s4.2,0,4.2,0Z"></path></g><g><path class="st0" d="M187.3,76.3v-27.1l19.8,18.4v-18.5h4.2v27.2l-19.8-17.8v17.9h-4.2Z"></path><path class="st0" d="M121.5,70h-11.6l-3,6.6h-4.5l13.6-27.7,12.9,27.7h-4.5l-2.8-6.6ZM119.9,66.1l-4-8.7-4.2,8.7h8.3Z"></path><path class="st0" d="M133.3,49.3l7.6,17.8,7.6-17.8h4.5l-12.1,27.9-12.1-27.9h4.5Z"></path><path class="st0" d="M176.5,53.2h-10.9v6.9h10.6v3.9h-10.6v8.6h10.9v3.9h-15.1v-27.3h15.1v3.9h0Z"></path><path class="st0" d="M225.9,49.3v16.5c0,1.5,0,3.3.9,4.7.8,1.4,2.7,2.8,5.1,2.8s4.3-1.4,5.1-2.8c.8-1.4.9-3.2.9-4.7v-16.5h4.2v17.5c0,2.2-.4,4.8-2.5,7.1-1.4,1.6-3.9,3.2-7.6,3.2s-6.2-1.6-7.6-3.2c-2.1-2.3-2.5-4.9-2.5-7.1v-17.5h4.2Z"></path><path class="st0" d="M266.1,53.2h-10.9v6.9h10.6v3.9h-10.6v8.6h10.9v3.9h-15.1v-27.3h15.1v3.9Z"></path></g><g><path class="st0" d="M249.1,113.4v-27.1l19.8,18.4v-18.5h4.2v27.2l-19.8-17.8v17.9h-4.2Z"></path><path class="st0" d="M123.9,92.5c-3-2.7-5.9-3-7.4-3-5.9,0-9.9,4.4-9.9,10.4s4.2,10.2,10,10.2,5.8-1.7,7.4-3.2v5c-2.7,1.6-5.6,2-7.5,2-5,0-8-2.3-9.6-3.7-3.2-3-4.4-6.5-4.4-10.3s2.1-8.5,4.4-10.7c2.8-2.7,6.1-3.6,9.9-3.6s4.9.4,7.3,2v4.9h0Z"></path><path class="st0" d="M154.9,99.8c0,8-6,14.2-14.2,14.2s-14.2-6.2-14.2-14.2,6-14.2,14.2-14.2,14.2,6.1,14.2,14.2ZM150.7,99.8c0-6-4.2-10.3-10-10.3s-10,4.3-10,10.3,4.2,10.3,10,10.3,10-4.3,10-10.3Z"></path><path class="st0" d="M189.1,113.8l5.7-28.1,9.5,18.8,9.6-18.8,5.2,28.1h-4.3l-2.8-15.3-7.9,15.4-7.9-15.4-2.9,15.3h-4.3Z"></path><path class="st0" d="M156.5,113.8l5.7-28.1,9.5,18.8,9.6-18.8,5.2,28.1h-4.3l-2.8-15.3-7.9,15.4-7.9-15.4-2.9,15.3h-4.3Z"></path><path class="st0" d="M226.7,85.9v16.5c0,1.5,0,3.3.9,4.7.8,1.4,2.7,2.8,5.1,2.8s4.3-1.4,5.1-2.8.9-3.2.9-4.7v-16.5h4.2v17.5c0,2.2-.4,4.8-2.5,7.1-1.4,1.6-3.9,3.2-7.6,3.2s-6.2-1.6-7.6-3.2c-2.1-2.3-2.5-4.9-2.5-7.1v-17.5h4.2Z"></path><path class="st0" d="M283.2,86.2v27.3h-4.2v-27.3h4.2Z"></path><path class="st0" d="M298.8,90.1v23.4h-4.2v-23.4h-6.3v-3.9h16.7v3.9h-6.3Z"></path><path class="st0" d="M313.7,86.2v27.3h-4.2v-27.3h4.2Z"></path><path class="st0" d="M335.3,90.1h-10.9v6.9h10.6v3.9h-10.6v8.6h10.9v3.9h-15.1v-27.3h15.1v3.9Z"></path><path class="st0" d="M352,92.2c-.3-.6-.6-1.2-1.2-1.7-.9-.7-1.7-1-2.9-1-2.5,0-3.9,1.5-3.9,3.3s.3,2.3,2.9,3.3l2.7,1.1c5,2,6.4,4.9,6.4,8,0,5.2-3.7,8.8-8.8,8.8s-5-1.2-6.4-2.7c-1.5-1.6-2.1-3.4-2.3-5.3l4.1-.9c0,1.3.5,2.6,1.1,3.5.8,1,1.9,1.6,3.6,1.6,2.5,0,4.5-1.9,4.5-4.6s-2.1-3.9-3.9-4.7l-2.6-1.1c-2.3-.9-5.6-2.8-5.6-6.9s2.9-7.2,8-7.2,4.6,1.1,5.5,1.9c.7.7,1.5,1.6,2.1,2.7l-3.3,1.9Z"></path></g></svg>