<?xml version="1.0" encoding="UTF-8"?>
<svg xmlns="http://www.w3.org/2000/svg" xmlns:xlink="http://www.w3.org/1999/xlink" version="1.1" viewBox="0 0 206.9 69.4">
  <defs>
    <style>
      .st0 { fill: #010101; }
      .st1 { fill: none; stroke: #991b1e; stroke-width: 3px; }
      .st2 { fill: url(#radial-gradient); }
      .st3 { isolation: isolate; }
      .st4 { fill: url(#New_Gradient_Swatch_11); }
      .st5 { fill: url(#New_Gradient_Swatch_12); }
      .st6 { fill: url(#linear-gradient); mix-blend-mode: multiply; }
      .st7 { fill: url(#New_Gradient_Swatch_1); }
      .st8 { fill: #676767; }
    </style>
    <linearGradient id="linear-gradient" x1="174" y1="40.8" x2="212.5" y2="42.8" gradientTransform="translate(227.3) rotate(-180) scale(1 -1)" gradientUnits="userSpaceOnUse">
      <stop offset=".1" stop-color="#166734"/>
      <stop offset="1" stop-color="#369946"/>
    </linearGradient>
    <radialGradient id="New_Gradient_Swatch_1" data-name="New Gradient Swatch 1" cx="169.7" cy="43.1" fx="169.7" fy="43.1" r="50.4" gradientTransform="translate(227.3) rotate(-180) scale(1 -1)" gradientUnits="userSpaceOnUse">
      <stop offset=".3" stop-color="#ee203b"/>
      <stop offset=".9" stop-color="#991b1e"/>
    </radialGradient>
    <radialGradient id="radial-gradient" cx="189" cy="22.3" fx="189" fy="22.3" r="19.5" gradientTransform="translate(227.3) rotate(-180) scale(1 -1)" gradientUnits="userSpaceOnUse">
      <stop offset=".2" stop-color="#f8991d"/>
      <stop offset=".9" stop-color="#ef3d23"/>
    </radialGradient>
    <radialGradient id="New_Gradient_Swatch_11" data-name="New Gradient Swatch 1" cx="169.9" cy="40.4" fx="169.9" fy="40.4" r="42.3" xlink:href="#New_Gradient_Swatch_1"/>
    <radialGradient id="New_Gradient_Swatch_12" data-name="New Gradient Swatch 1" cx="164" cy="31.4" fx="164" fy="31.4" r="45.7" gradientTransform="translate(215 -2.2) rotate(177.7) scale(1 -1)" xlink:href="#New_Gradient_Swatch_1"/>
  </defs>
  <g class="st3">
    <g id="Layer_1">
      <path class="st6" d="M0,41.7l7.6-4.4c9.5-5.5,24.9-5.5,34.4,0l12.1,7c-10.9,7.4-30,9.1-44.2,3.5-4.2-1.6-7.5-3.7-9.9-6.1Z"/>
      <path class="st1" d="M21.2,1.5h10.8c13.4,0,24.3,10.9,24.3,24.3v17.1c-16.8,1.4-32.3-10.1-35.5-27-.9-5-.7-9.9.5-14.5Z"/>
      <path class="st7" d="M21.2,1.5h10.8c13.4,0,24.3,10.9,24.3,24.3v17.1C38.7,10,29.5,7.7,21.2,1.5Z"/>
      <path class="st2" d="M20.8,16c-.9-5-.7-9.9.5-14.5,8.2,6.2,17.4,8.5,35.1,41.5-16.8,1.4-32.3-10.1-35.5-27Z"/>
      <path class="st4" d="M20.8,16c-.9-5-.7-9.9.5-14.5,8.2,6.2,17.4,8.5,35.1,41.5-16.8,1.4-32.3-10.1-35.5-27Z"/>
      <path class="st5" d="M21.2,1.5c8.5,5.8,35.2,40.2,34.4,40.2C38.4,10,29.4,7.6,21.2,1.5Z"/>
      <g>
        <path class="st8" d="M86.1,49.6v12.3c0,1.2,0,2.5,0,3.2h-2.9l-.2-1.6h0c-.7,1.2-2,1.8-3.3,1.8-2.5,0-4.6-2.2-4.6-5.5,0-3.6,2.2-5.7,4.8-5.7s2.3.5,2.8,1.2h0v-5.8h3.3ZM82.7,59c0-.2,0-.4,0-.6-.2-.9-.9-1.6-1.9-1.6-1.5,0-2.3,1.4-2.3,3s.9,2.9,2.3,2.9,1.7-.7,1.9-1.6c0-.2,0-.5,0-.8v-1.4Z"/>
        <path class="st8" d="M91.6,60.8c.1,1.4,1.5,2,3,2s2.1-.2,2.9-.4l.4,2.2c-1.1.4-2.4.7-3.9.7-3.6,0-5.7-2.1-5.7-5.5s1.7-5.7,5.4-5.7,4.8,2.7,4.8,5.3,0,1.1-.1,1.3h-6.9ZM95.5,58.6c0-.8-.3-2.2-1.9-2.2s-2,1.3-2.1,2.2h3.9Z"/>
        <path class="st8" d="M103.1,54.4l1.4,5c.3.9.5,1.7.6,2.6h0c.2-.9.3-1.7.6-2.6l1.4-5h3.5l-4,10.7h-3.3l-3.9-10.7h3.6Z"/>
        <path class="st8" d="M114.7,60.8c.1,1.4,1.5,2,3,2s2.1-.2,2.9-.4l.4,2.2c-1.1.4-2.4.7-3.9.7-3.6,0-5.7-2.1-5.7-5.5s1.7-5.7,5.4-5.7,4.8,2.7,4.8,5.3,0,1.1-.1,1.3h-6.9ZM118.6,58.6c0-.8-.3-2.2-1.9-2.2s-2,1.3-2.1,2.2h3.9Z"/>
        <path class="st8" d="M124.1,49.6h3.3v15.5h-3.3v-15.5Z"/>
        <path class="st8" d="M141,59.7c0,3.9-2.8,5.7-5.6,5.7s-5.5-2.1-5.5-5.5,2.3-5.7,5.7-5.7,5.5,2.2,5.5,5.5ZM133.3,59.8c0,1.8.8,3.2,2.2,3.2s2.1-1.3,2.1-3.2-.6-3.2-2.1-3.2-2.2,1.6-2.2,3.2Z"/>
        <path class="st8" d="M143.4,58c0-1.4,0-2.6,0-3.6h2.9l.2,1.5h0c.8-1.1,2-1.7,3.6-1.7,2.3,0,4.4,2,4.4,5.4s-2.5,5.7-4.8,5.7-2.3-.5-2.8-1.2h0v5.3h-3.3v-11.4ZM146.7,60.5c0,.3,0,.5,0,.7.2.9,1,1.6,1.9,1.6,1.4,0,2.3-1.2,2.3-3s-.8-3-2.2-3-1.8.7-2,1.7c0,.2,0,.4,0,.6v1.5Z"/>
        <path class="st8" d="M156.8,57.9c0-1.3,0-2.5,0-3.4h2.8l.2,1.4h0c.5-.7,1.4-1.7,3.2-1.7s2.5.7,2.9,1.8h0c.4-.6.9-1,1.4-1.3.6-.3,1.2-.5,2-.5,2.1,0,3.6,1.4,3.6,4.6v6.3h-3.2v-5.8c0-1.6-.5-2.4-1.6-2.4s-1.3.5-1.5,1.2c0,.2-.1.6-.1.9v6.2h-3.2v-6c0-1.4-.5-2.3-1.5-2.3s-1.4.7-1.6,1.2c-.1.3-.1.6-.1.8v6.2h-3.2v-7.3Z"/>
        <path class="st8" d="M178.4,60.8c.1,1.4,1.5,2,3,2s2.1-.2,2.9-.4l.4,2.2c-1.1.4-2.4.7-3.9.7-3.6,0-5.7-2.1-5.7-5.5s1.7-5.7,5.4-5.7,4.8,2.7,4.8,5.3,0,1.1-.1,1.3h-6.9ZM182.3,58.6c0-.8-.3-2.2-1.9-2.2s-2,1.3-2.1,2.2h3.9Z"/>
        <path class="st8" d="M187.8,57.9c0-1.3,0-2.5,0-3.4h2.9l.2,1.5h0c.4-.7,1.5-1.7,3.3-1.7s3.8,1.4,3.8,4.6v6.3h-3.3v-5.9c0-1.4-.5-2.3-1.7-2.3s-1.5.6-1.7,1.2c0,.2-.1.5-.1.8v6.2h-3.3v-7.3Z"/>
        <path class="st8" d="M204.5,51.5v2.9h2.4v2.4h-2.4v3.9c0,1.3.3,1.9,1.3,1.9s.7,0,1,0v2.5c-.4.2-1.2.3-2.1.3s-2-.4-2.5-.9c-.6-.6-.9-1.7-.9-3.2v-4.4h-1.4v-2.4h1.4v-2l3.3-.9Z"/>
      </g>
      <g>
        <path class="st0" d="M75,16.2c2.1-.3,5.2-.6,8.9-.6s7.2.6,9.3,2.1c1.8,1.3,2.7,3.3,2.7,6s-2.6,5.9-4.7,6.7v.2c1.8.8,2.8,2.5,3.5,4.9.9,2.8,1.8,6.8,2.3,7.9h-7.6c-.4-.8-1.1-2.9-1.9-6.3-.7-3.3-1.8-4-4.1-4h-1.2v10.4h-7.3v-27.2ZM82.4,27.8h1.9c2.8,0,4.4-1.4,4.4-3.4s-1.4-3.2-3.8-3.3c-1.4,0-2.1,0-2.5.2v6.5Z"/>
        <path class="st0" d="M126.5,29.4c0,8.9-5.3,14.5-13.8,14.5s-13.3-6.4-13.3-14.1,5.3-14.4,13.7-14.4,13.4,6.6,13.4,14ZM107.2,29.7c0,5.2,2.3,8.3,5.8,8.3s5.6-3.5,5.6-8.4-2.1-8.3-5.7-8.3-5.8,3.4-5.8,8.4Z"/>
        <path class="st0" d="M131,36.1c1.7.9,4.4,1.7,7.2,1.7s3.8-.9,3.8-2.2-1.2-2.1-4.3-3.2c-4.7-1.6-7.7-4.2-7.7-8.3s4.1-8.6,11-8.6,5.6.6,7.5,1.4l-1.6,5.9c-1.2-.5-3.2-1.3-6-1.3s-3.5.8-3.5,2,1.5,2,5,3.3c5,1.8,7.2,4.5,7.2,8.3s-3.7,8.8-11.8,8.8-6.5-.9-8.1-1.7l1.4-6.1Z"/>
        <path class="st0" d="M171.3,32.3h-9.9v5.1h11.1v6.1h-18.5V15.9h17.9v6h-10.5v4.5h9.9v6Z"/>
      </g>
    </g>
  </g>
</svg>
