<svg xmlns="http://www.w3.org/2000/svg" width="1280" height="937pt" viewBox="0 0 960 937">
  <g fill="#eb2335">
    <path d="M435.65 0h20.78c5.47.99 11.08.03 16.56 1.08C563.08 6.6 650.54 44.92 716.2 106.74c47.22 43.89 83.4 99.64 104.25 160.67 16.71 47.86 23.29 99.02 20.7 149.56-3.3 67.06-24.56 133.03-60.5 189.7-29.97 47.37-70.08 88.28-116.91 119.09-59.03 39.25-128.93 61.81-199.73 64.87-6.7-.23-13.33.98-20.02.59-13.35-.57-26.74-.85-40.03-2.46-61.05-6.29-120.4-27.46-171.95-60.71-24.77-15.94-47.59-34.82-68.42-55.61-6.84-7.54-13.94-14.84-20.43-22.7-14.53-17.19-27.46-35.72-38.86-55.12-38.92-66.17-57.63-144.02-53.09-220.63 4.17-88.45 40.08-174.8 99.04-240.75 7.8-8.49 15.34-17.29 24.11-24.82C240.32 45.4 328.88 6.48 420 1.04 425.18.05 430.48.98 435.65 0m-3.21 32.64c-44.75 1.75-89.2 11.76-130.29 29.62-46.12 20.06-88.1 49.7-122.21 86.65-61.41 65.7-97.35 155.01-96.87 245.07-1.19 86.35 31.03 172.35 87.39 237.62 48.68 57.03 115.46 98.47 188.31 116.4 84.61 21.26 176.86 10.52 254.16-30.03 32.34-16.72 62.06-38.43 88.03-63.93 45.9-45.22 79.68-102.72 96.2-165.05 20-74.19 15.44-154.75-12.97-226.17-13.99-35.51-33.67-68.75-57.99-98.15-47.17-57.3-112.27-99.7-183.9-119.26-35.68-9.87-72.88-14.12-109.86-12.77"/>
    <path d="M453.22 356.25c.4-.48 1.19-1.45 1.58-1.94 16.71 36.69 34.69 72.79 53.25 108.58 19.44 37.03 39.6 73.75 62.42 108.83 10.32 15.71 21.16 31.13 33.63 45.23 7.83 8.15 15.88 16.95 26.76 20.95 2.56 1.18 5.68.2 8.09 1.64-15.64 12.49-32.94 22.79-50.91 31.57-38.03 18.63-79.78 29.66-122.04 32.3-12.26.69-24.57 1.22-36.82.13-12.8-.43-25.58-1.93-38.06-4.81-42.15-9.54-83.17-25.47-119.28-49.4-19-12.94-36.87-27.94-51.22-45.98 3.99 1.45 7.59 3.74 11.42 5.53 29.47 14.59 61.8 25.31 94.99 25.02 20.2.52 40.46-3.83 58.79-12.3 29.66-13.64 53.04-37.98 70.45-65.15 7.81-12.25 14.68-25.08 20.66-38.31-31.32-.12-62.65-.01-93.97-.05-3.15-.07-6.37.34-9.44-.54 26.62-53.74 53.12-107.54 79.7-161.3"/>
  </g>
  <g fill="#fff">
    <path d="M432.44 32.64c36.98-1.35 74.18 2.9 109.86 12.77 71.63 19.56 136.73 61.96 183.9 119.26 24.32 29.4 44 62.64 57.99 98.15 28.41 71.42 32.97 151.98 12.97 226.17-16.52 62.33-50.3 119.83-96.2 165.05-25.97 25.5-55.69 47.21-88.03 63.93-77.3 40.55-169.55 51.29-254.16 30.03-72.85-17.93-139.63-59.37-188.31-116.4-56.36-65.27-88.58-151.27-87.39-237.62-.48-90.06 35.46-179.37 96.87-245.07 34.11-36.95 76.09-66.59 122.21-86.65 41.09-17.86 85.54-27.87 130.29-29.62m-109.46 75.34c-50.02 22.09-93.86 57.78-125.92 102.05-36.4 49.95-57.27 111.03-58.86 172.82-.94 8.71.04 17.43.22 26.14 2.69 51.98 18.62 103.28 46.25 147.42.71 1.63 2.12-.63 2.43-1.39 77.57-140.04 155.13-280.07 232.69-420.11 9.56-17.01 18.72-34.26 28.52-51.13-.12-.64-.38-1.94-.51-2.58-42.84.47-85.68 9.24-124.82 26.78m126.65-24.66c1.65 1.92 2.65 4.26 3.78 6.5 82.21 160.09 164.38 320.21 246.6 480.31.99 2.55-1.17 5.21-.86 7.9 18.13-24.33 32.68-51.34 42.95-79.9 26.94-74.13 24.22-158.55-7.73-230.7-30.83-70.8-89.12-129.08-159.91-159.92-38.67-17.16-80.9-25.76-123.15-26.29q-.885 1.02-1.68 2.1m3.59 272.93c-26.58 53.76-53.08 107.56-79.7 161.3 3.07.88 6.29.47 9.44.54 31.32.04 62.65-.07 93.97.05-5.98 13.23-12.85 26.06-20.66 38.31-17.41 27.17-40.79 51.51-70.45 65.15-18.33 8.47-38.59 12.82-58.79 12.3-33.19.29-65.52-10.43-94.99-25.02-3.83-1.79-7.43-4.08-11.42-5.53 14.35 18.04 32.22 33.04 51.22 45.98 36.11 23.93 77.13 39.86 119.28 49.4 12.48 2.88 25.26 4.38 38.06 4.81 12.25 1.09 24.56.56 36.82-.13 42.26-2.64 84.01-13.67 122.04-32.3 17.97-8.78 35.27-19.08 50.91-31.57-2.41-1.44-5.53-.46-8.09-1.64-10.88-4-18.93-12.8-26.76-20.95-12.47-14.1-23.31-29.52-33.63-45.23-22.82-35.08-42.98-71.8-62.42-108.83-18.56-35.79-36.54-71.89-53.25-108.58-.39.49-1.18 1.46-1.58 1.94"/>
    <path d="M117.66 834.61c11.3-8.7 26.57-10.44 40.28-7.99 10.8 1.24 21.35 6.9 27.11 16.29 3.24 5.32 4.04 11.57 4.55 17.65-7.9.04-15.81.03-23.71.01.27-5.27-2.23-10.91-7.03-13.4-5.16-2.85-11.26-3.07-17.01-2.63-5.12.77-10.88 3.69-12.03 9.21-.35 3.29-.24 7.66 3.17 9.39 6.15 3.71 13.38 4.75 20.18 6.74 8.85 2.55 18.46 3.52 26.28 8.79 7.63 4.76 13.41 13.15 13.32 22.36.59 8.14-1.75 16.54-7.1 22.79-6.84 8.04-17.39 11.51-27.48 13.18h-18.54c-9.69-1.66-19.82-4.51-26.85-11.81-7.08-6.56-10.33-16.35-10.05-25.86 7.76.01 15.53-.14 23.29.09-.02 5.58 2.2 11.47 6.92 14.72 6.31 4.51 14.5 5.22 22 4.29 4.16-.69 8.47-2 11.59-4.98 4.03-3.83 4.37-11.22-.09-14.85-5.31-4.13-11.9-6.03-18.36-7.47-7.67-1.99-15.45-3.75-22.82-6.74-6.75-2.8-13.14-7.36-16.29-14.15-3-5.25-2.47-11.48-2.3-17.28 1.24-7.15 5.1-14 10.97-18.35m91.05 2.16c8.3-7.97 20.1-10.94 31.33-11.21 11.62.24 24.06 2.37 32.95 10.47 6.91 6.06 10.46 15.44 9.69 24.56-7.69-.02-15.37 0-23.06-.01.21-6.18-3.45-12.59-9.51-14.52-7.24-2.29-15.91-2.91-22.47 1.54-4.65 2.92-5.74 10-2.59 14.32 5.69 4.55 13.24 5.45 20.02 7.53 9.49 2.79 19.81 3.73 28.21 9.36 7.51 4.8 13.12 13.09 13.17 22.21.69 9.67-3.08 19.68-10.41 26.12-6.98 5.8-15.91 8.63-24.78 9.86h-17.77c-9.93-1.53-20.32-4.59-27.41-12.13-6.85-6.52-10.07-16.23-9.57-25.56h23.09c.09 3.41.63 6.93 2.47 9.89 3.12 5.74 9.84 8.24 15.94 9.28 6.77.73 14.1.37 19.99-3.43 4.14-2.3 6.5-7.62 4.8-12.15-1.33-5.04-6.76-6.99-11.04-8.87-12.89-4.47-27.04-5.66-38.94-12.75-7.42-4.32-12.89-12.58-12.57-21.33.03-3.67-.23-7.44.93-10.96 1.37-4.66 4.31-8.66 7.53-12.22m100.23 2.14c11.48-11.11 28.52-14.99 44.03-12.71 11.05 1.21 21.7 6.45 29.22 14.65 8.19 8.27 12.79 19.61 14.32 31.02 2.34 15.95-.7 33.17-10.48 46.26-7.66 10.6-20.14 16.92-32.89 18.87h-16.8c-10.57-1.64-21.08-5.98-28.52-13.87-7.95-7.56-12.67-17.95-14.57-28.65-1.47-6.08-.77-12.37-.88-18.56 1.07-13.69 6.34-27.54 16.57-37.01m27.68 7.91c-7.57 1.93-13.54 7.96-16.62 14.99-3.99 9.1-4.59 19.38-3.2 29.13 1.5 8.89 5.71 18.03 13.78 22.73 5.7 3.97 12.96 3.37 19.55 3.14 7.36-.9 13.44-5.96 17.48-11.9 5.64-9.26 5.91-20.47 5.06-30.96-1.1-9.74-5.66-19.57-14.27-24.78-6.58-3.79-14.55-3.58-21.78-2.35m79.61-1.73c7.41-10.21 19.21-17.01 31.68-18.71 13.24-2.16 27.68.03 38.74 7.96 9.86 6.65 16.07 18.2 16.86 29.99-7.67 0-15.33.01-22.99-.01-.84-3.9-2.57-7.62-5.22-10.61-9.91-11.1-30.01-10.17-38.78 1.89-6.02 7.68-7.69 17.85-7.35 27.38-.32 9.78 2.72 19.94 9.48 27.18 4.24 3.73 9.55 6.73 15.35 6.76 4.96-.01 10.33.55 14.76-2.16 7.9-4.09 11.45-13.07 12.72-21.4 7.72.09 15.44-.01 23.17.06-.92 9.45-3.71 18.93-9.51 26.57-6.73 9.81-18.27 15.25-29.77 17.01h-15.93c-12.95-1.87-25.83-8.19-33.45-19.1-8.1-10.43-11.05-23.93-11.22-36.9.51-12.66 3.62-25.7 11.46-35.91M39.54 828.25l24.64.07 39.79 106.48-25.07-.17-8.04-23.3-38.94-.13-8.17 23.51L0 934.8v-2.06zm11.02 29.95-12.42 35.19 26.59-.01-12.78-37.49zm466.31-29.92h23.71v106.51l-23.78-.04zm69.91.03 24.65-.05 39.64 106.48-24.78-.08-7.93-23.3-39.42-.13-7.98 23.44-24.47.08zm11.9 27.24-13.31 37.89 26.49-.09zm36.09-27.27h87.8l-.1 19.99-32.22-.04v86.56l-23.68.01v-86.57l-31.8-.01zm96.45-.01 79.58.01-.02 19.95-56.05.17.34 22.39 51.51.04-.12 18.38h-51.65l.25 25.64 57.37-.01.04 19.96-81.25-.01zm93.08 0c15.59 0 31.18.01 46.77 0 10.01-.3 20.12 2.49 28.44 8.1 11.11 7.52 17.33 20.61 18.97 33.66.38 1.2-.7 3.36 1.13 3.74.03 4.83.03 9.67.01 14.5l-.95.57c-.64 9.35-3.39 18.61-8.36 26.6-5.74 8.55-14.51 15.05-24.52 17.63-7.38 2.36-15.18 1.62-22.79 1.73-12.91-.03-25.8.13-38.7-.01zm24.2 20.04c.17 22.19-.07 44.39.12 66.57 9.19-.46 18.55.89 27.62-1.07 8.2-1.67 14.31-8.66 16.87-16.36 3.08-9.58 2.61-19.91.23-29.58-1.9-7.46-6.97-14.26-14.29-17.1-9.75-3.67-20.37-2.34-30.55-2.46" style="fill:#000"/>
  </g>
  <path d="M322.98 107.98c39.14-17.54 81.98-26.31 124.82-26.78.13.64.39 1.94.51 2.58-9.8 16.87-18.96 34.12-28.52 51.13-77.56 140.04-155.12 280.07-232.69 420.11-.31.76-1.72 3.02-2.43 1.39-27.63-44.14-43.56-95.44-46.25-147.42-.18-8.71-1.16-17.43-.22-26.14 1.59-61.79 22.46-122.87 58.86-172.82 32.06-44.27 75.9-79.96 125.92-102.05m126.65-24.66q.795-1.08 1.68-2.1c42.25.53 84.48 9.13 123.15 26.29 70.79 30.84 129.08 89.12 159.91 159.92 31.95 72.15 34.67 156.57 7.73 230.7-10.27 28.56-24.82 55.57-42.95 79.9-.31-2.69 1.85-5.35.86-7.9-82.22-160.1-164.39-320.22-246.6-480.31-1.13-2.24-2.13-4.58-3.78-6.5" fill="#1967b2"/>
</svg>
